<mxfile host="Electron" modified="2024-04-28T17:50:59.587Z" agent="Mozilla/5.0 (Windows NT 10.0; Win64; x64) AppleWebKit/537.36 (KHTML, like Gecko) draw.io/24.1.0 Chrome/120.0.6099.109 Electron/28.1.0 Safari/537.36" etag="ZeYY08zbA3h_FH_rMxO9" version="24.1.0" type="device">
  <diagram name="Page-1" id="lQq1lRdGTu987LEh8UeJ">
    <mxGraphModel dx="9160" dy="3440" grid="1" gridSize="10" guides="1" tooltips="1" connect="1" arrows="1" fold="1" page="1" pageScale="1" pageWidth="850" pageHeight="1100" math="0" shadow="0">
      <root>
        <mxCell id="0" />
        <mxCell id="1" parent="0" />
        <mxCell id="v4ZDc3-o21Q33p204Lgi-2" style="edgeStyle=orthogonalEdgeStyle;rounded=0;orthogonalLoop=1;jettySize=auto;html=1;exitX=0.008;exitY=0.917;exitDx=0;exitDy=0;exitPerimeter=0;entryX=0.519;entryY=-0.002;entryDx=0;entryDy=0;entryPerimeter=0;" parent="1" source="v4ZDc3-o21Q33p204Lgi-1" target="v4ZDc3-o21Q33p204Lgi-10" edge="1">
          <mxGeometry relative="1" as="geometry">
            <mxPoint x="-90" y="760" as="targetPoint" />
            <Array as="points">
              <mxPoint x="322" y="530" />
              <mxPoint x="-84" y="530" />
            </Array>
          </mxGeometry>
        </mxCell>
        <mxCell id="v4ZDc3-o21Q33p204Lgi-12" style="edgeStyle=orthogonalEdgeStyle;rounded=0;orthogonalLoop=1;jettySize=auto;html=1;exitX=1;exitY=0.75;exitDx=0;exitDy=0;entryX=0.5;entryY=0;entryDx=0;entryDy=0;" parent="1" source="v4ZDc3-o21Q33p204Lgi-1" target="v4ZDc3-o21Q33p204Lgi-7" edge="1">
          <mxGeometry relative="1" as="geometry">
            <Array as="points">
              <mxPoint x="620" y="530" />
              <mxPoint x="1120" y="530" />
            </Array>
          </mxGeometry>
        </mxCell>
        <mxCell id="v4ZDc3-o21Q33p204Lgi-14" style="edgeStyle=orthogonalEdgeStyle;rounded=0;orthogonalLoop=1;jettySize=auto;html=1;exitX=0;exitY=0.75;exitDx=0;exitDy=0;entryX=0.5;entryY=0;entryDx=0;entryDy=0;" parent="1" source="v4ZDc3-o21Q33p204Lgi-1" target="v4ZDc3-o21Q33p204Lgi-6" edge="1">
          <mxGeometry relative="1" as="geometry">
            <Array as="points">
              <mxPoint x="320" y="530" />
              <mxPoint x="-510" y="530" />
            </Array>
          </mxGeometry>
        </mxCell>
        <mxCell id="v4ZDc3-o21Q33p204Lgi-15" style="edgeStyle=orthogonalEdgeStyle;rounded=0;orthogonalLoop=1;jettySize=auto;html=1;entryX=0.5;entryY=0;entryDx=0;entryDy=0;" parent="1" source="v4ZDc3-o21Q33p204Lgi-1" target="v4ZDc3-o21Q33p204Lgi-5" edge="1">
          <mxGeometry relative="1" as="geometry">
            <Array as="points">
              <mxPoint x="-900" y="530" />
            </Array>
          </mxGeometry>
        </mxCell>
        <mxCell id="v4ZDc3-o21Q33p204Lgi-17" style="edgeStyle=orthogonalEdgeStyle;rounded=0;orthogonalLoop=1;jettySize=auto;html=1;entryX=0.5;entryY=0;entryDx=0;entryDy=0;" parent="1" source="v4ZDc3-o21Q33p204Lgi-1" target="v4ZDc3-o21Q33p204Lgi-3" edge="1">
          <mxGeometry relative="1" as="geometry">
            <Array as="points">
              <mxPoint x="1890" y="530" />
            </Array>
          </mxGeometry>
        </mxCell>
        <mxCell id="v4ZDc3-o21Q33p204Lgi-1" value="&lt;div style=&quot;background-color: rgb(255, 255, 255); padding: 0px 2px; font-size: 13px;&quot;&gt;&lt;div style=&quot;font-family: Consolas; font-size: 13px; white-space: pre;&quot;&gt;&lt;p style=&quot;margin: 0px; font-size: 13px;&quot;&gt;+---+---+---+---+---+---+---+---+&lt;/p&gt;&lt;p style=&quot;margin: 0px; font-size: 13px;&quot;&gt;| . | . | . | . | . | . | . | . | &lt;/p&gt;&lt;p style=&quot;margin: 0px; font-size: 13px;&quot;&gt;+---+---+---+---+---+---+---+---+&lt;/p&gt;&lt;p style=&quot;margin: 0px; font-size: 13px;&quot;&gt;| . | . | . | . | . | . | . | . | &lt;/p&gt;&lt;p style=&quot;margin: 0px; font-size: 13px;&quot;&gt;+---+---+---+---+---+---+---+---+&lt;/p&gt;&lt;p style=&quot;margin: 0px; font-size: 13px;&quot;&gt;| . | . | . | . | . | . | . | . | &lt;/p&gt;&lt;p style=&quot;margin: 0px; font-size: 13px;&quot;&gt;+---+---+---+---+---+---+---+---+&lt;/p&gt;&lt;p style=&quot;margin: 0px; font-size: 13px;&quot;&gt;| . | . | . | . | . | . | . | . | &lt;/p&gt;&lt;p style=&quot;margin: 0px; font-size: 13px;&quot;&gt;+---+---+---+---+---+---+---+---+&lt;/p&gt;&lt;p style=&quot;margin: 0px; font-size: 13px;&quot;&gt;| . | . | . | . | . | . | . | . | &lt;/p&gt;&lt;p style=&quot;margin: 0px; font-size: 13px;&quot;&gt;+---+---+---+---+---+---+---+---+&lt;/p&gt;&lt;p style=&quot;margin: 0px; font-size: 13px;&quot;&gt;| . | . | . | . | . | . | . | . | &lt;/p&gt;&lt;p style=&quot;margin: 0px; font-size: 13px;&quot;&gt;+---+---+---+---+---+---+---+---+&lt;/p&gt;&lt;p style=&quot;margin: 0px; font-size: 13px;&quot;&gt;| . | . | . | . | . | . | . | . | &lt;/p&gt;&lt;p style=&quot;margin: 0px; font-size: 13px;&quot;&gt;+---+---+---+---+---+---+---+---+&lt;/p&gt;&lt;p style=&quot;margin: 0px; font-size: 13px;&quot;&gt;| . | . | . | . | . | . | . | . | &lt;/p&gt;&lt;p style=&quot;margin: 0px; font-size: 13px;&quot;&gt;+---+---+---+---+---+---+---+---+&lt;/p&gt;&lt;/div&gt;&lt;/div&gt;" style="rounded=1;whiteSpace=wrap;html=1;fillColor=#ffcd28;strokeColor=#d79b00;fontStyle=1;align=center;fontSize=13;verticalAlign=middle;gradientColor=#ffa500;" parent="1" vertex="1">
          <mxGeometry x="320" y="260" width="300" height="300" as="geometry" />
        </mxCell>
        <mxCell id="v4ZDc3-o21Q33p204Lgi-3" value="&lt;div style=&quot;background-color:#ffffff;padding:0px 2px 0px 2px;&quot;&gt;&lt;div style=&quot;font-family: Consolas; font-size: 10pt; white-space: pre;&quot;&gt;&lt;p style=&quot;margin:0;&quot;&gt;+---+---+---+---+---+---+---+---+&lt;/p&gt;&lt;p style=&quot;margin:0;&quot;&gt;| . | . | . | . | . | . | . | Q | &lt;/p&gt;&lt;p style=&quot;margin:0;&quot;&gt;+---+---+---+---+---+---+---+---+&lt;/p&gt;&lt;p style=&quot;margin:0;&quot;&gt;| . | . | . | . | . | . | . | . | &lt;/p&gt;&lt;p style=&quot;margin:0;&quot;&gt;+---+---+---+---+---+---+---+---+&lt;/p&gt;&lt;p style=&quot;margin:0;&quot;&gt;| . | . | . | . | . | . | . | . | &lt;/p&gt;&lt;p style=&quot;margin:0;&quot;&gt;+---+---+---+---+---+---+---+---+&lt;/p&gt;&lt;p style=&quot;margin:0;&quot;&gt;| . | . | . | . | . | . | . | . | &lt;/p&gt;&lt;p style=&quot;margin:0;&quot;&gt;+---+---+---+---+---+---+---+---+&lt;/p&gt;&lt;p style=&quot;margin:0;&quot;&gt;| . | . | . | . | . | . | . | . | &lt;/p&gt;&lt;p style=&quot;margin:0;&quot;&gt;+---+---+---+---+---+---+---+---+&lt;/p&gt;&lt;p style=&quot;margin:0;&quot;&gt;| . | . | . | . | . | . | . | . | &lt;/p&gt;&lt;p style=&quot;margin:0;&quot;&gt;+---+---+---+---+---+---+---+---+&lt;/p&gt;&lt;p style=&quot;margin:0;&quot;&gt;| . | . | . | . | . | . | . | . | &lt;/p&gt;&lt;p style=&quot;margin:0;&quot;&gt;+---+---+---+---+---+---+---+---+&lt;/p&gt;&lt;p style=&quot;margin:0;&quot;&gt;| . | . | . | . | . | . | . | . | &lt;/p&gt;&lt;p style=&quot;margin:0;&quot;&gt;+---+---+---+---+---+---+---+---+&lt;/p&gt;&lt;/div&gt;&lt;/div&gt;" style="rounded=1;whiteSpace=wrap;html=1;fillColor=#f8cecc;strokeColor=#b85450;" parent="1" vertex="1">
          <mxGeometry x="1740" y="750" width="300" height="300" as="geometry" />
        </mxCell>
        <mxCell id="v4ZDc3-o21Q33p204Lgi-4" value="&lt;div style=&quot;background-color:#ffffff;padding:0px 2px 0px 2px;&quot;&gt;&lt;div style=&quot;font-family: Consolas; font-size: 10pt; white-space: pre;&quot;&gt;&lt;p style=&quot;margin:0;&quot;&gt;+---+---+---+---+---+---+---+---+&lt;/p&gt;&lt;p style=&quot;margin:0;&quot;&gt;| . | . | . | . | . | . | Q | . | &lt;/p&gt;&lt;p style=&quot;margin:0;&quot;&gt;+---+---+---+---+---+---+---+---+&lt;/p&gt;&lt;p style=&quot;margin:0;&quot;&gt;| . | . | . | . | . | . | . | . | &lt;/p&gt;&lt;p style=&quot;margin:0;&quot;&gt;+---+---+---+---+---+---+---+---+&lt;/p&gt;&lt;p style=&quot;margin:0;&quot;&gt;| . | . | . | . | . | . | . | . | &lt;/p&gt;&lt;p style=&quot;margin:0;&quot;&gt;+---+---+---+---+---+---+---+---+&lt;/p&gt;&lt;p style=&quot;margin:0;&quot;&gt;| . | . | . | . | . | . | . | . | &lt;/p&gt;&lt;p style=&quot;margin:0;&quot;&gt;+---+---+---+---+---+---+---+---+&lt;/p&gt;&lt;p style=&quot;margin:0;&quot;&gt;| . | . | . | . | . | . | . | . | &lt;/p&gt;&lt;p style=&quot;margin:0;&quot;&gt;+---+---+---+---+---+---+---+---+&lt;/p&gt;&lt;p style=&quot;margin:0;&quot;&gt;| . | . | . | . | . | . | . | . | &lt;/p&gt;&lt;p style=&quot;margin:0;&quot;&gt;+---+---+---+---+---+---+---+---+&lt;/p&gt;&lt;p style=&quot;margin:0;&quot;&gt;| . | . | . | . | . | . | . | . | &lt;/p&gt;&lt;p style=&quot;margin:0;&quot;&gt;+---+---+---+---+---+---+---+---+&lt;/p&gt;&lt;p style=&quot;margin:0;&quot;&gt;| . | . | . | . | . | . | . | . | &lt;/p&gt;&lt;p style=&quot;margin:0;&quot;&gt;+---+---+---+---+---+---+---+---+&lt;/p&gt;&lt;/div&gt;&lt;/div&gt;" style="rounded=1;whiteSpace=wrap;html=1;fillColor=#f8cecc;strokeColor=#b85450;" parent="1" vertex="1">
          <mxGeometry x="1370" y="750" width="300" height="300" as="geometry" />
        </mxCell>
        <mxCell id="v4ZDc3-o21Q33p204Lgi-27" style="edgeStyle=orthogonalEdgeStyle;rounded=0;orthogonalLoop=1;jettySize=auto;html=1;exitX=0.5;exitY=1;exitDx=0;exitDy=0;entryX=0.5;entryY=0;entryDx=0;entryDy=0;" parent="1" source="v4ZDc3-o21Q33p204Lgi-5" target="v4ZDc3-o21Q33p204Lgi-26" edge="1">
          <mxGeometry relative="1" as="geometry">
            <Array as="points">
              <mxPoint x="-900" y="1150" />
              <mxPoint x="760" y="1150" />
            </Array>
          </mxGeometry>
        </mxCell>
        <mxCell id="v4ZDc3-o21Q33p204Lgi-28" style="edgeStyle=orthogonalEdgeStyle;rounded=0;orthogonalLoop=1;jettySize=auto;html=1;exitX=0.75;exitY=1;exitDx=0;exitDy=0;" parent="1" source="v4ZDc3-o21Q33p204Lgi-5" target="v4ZDc3-o21Q33p204Lgi-25" edge="1">
          <mxGeometry relative="1" as="geometry">
            <Array as="points">
              <mxPoint x="-900" y="1070" />
              <mxPoint x="-900" y="1150" />
              <mxPoint x="340" y="1150" />
            </Array>
          </mxGeometry>
        </mxCell>
        <mxCell id="v4ZDc3-o21Q33p204Lgi-29" style="edgeStyle=orthogonalEdgeStyle;rounded=0;orthogonalLoop=1;jettySize=auto;html=1;exitX=0.5;exitY=1;exitDx=0;exitDy=0;" parent="1" source="v4ZDc3-o21Q33p204Lgi-5" target="v4ZDc3-o21Q33p204Lgi-24" edge="1">
          <mxGeometry relative="1" as="geometry" />
        </mxCell>
        <mxCell id="v4ZDc3-o21Q33p204Lgi-30" style="edgeStyle=orthogonalEdgeStyle;rounded=0;orthogonalLoop=1;jettySize=auto;html=1;exitX=0.5;exitY=1;exitDx=0;exitDy=0;entryX=0.5;entryY=0;entryDx=0;entryDy=0;" parent="1" source="v4ZDc3-o21Q33p204Lgi-5" target="v4ZDc3-o21Q33p204Lgi-23" edge="1">
          <mxGeometry relative="1" as="geometry" />
        </mxCell>
        <mxCell id="v4ZDc3-o21Q33p204Lgi-31" style="edgeStyle=orthogonalEdgeStyle;rounded=0;orthogonalLoop=1;jettySize=auto;html=1;exitX=0.5;exitY=1;exitDx=0;exitDy=0;" parent="1" source="v4ZDc3-o21Q33p204Lgi-5" target="v4ZDc3-o21Q33p204Lgi-19" edge="1">
          <mxGeometry relative="1" as="geometry" />
        </mxCell>
        <mxCell id="v4ZDc3-o21Q33p204Lgi-32" style="edgeStyle=orthogonalEdgeStyle;rounded=0;orthogonalLoop=1;jettySize=auto;html=1;exitX=0.5;exitY=1;exitDx=0;exitDy=0;" parent="1" source="v4ZDc3-o21Q33p204Lgi-5" target="v4ZDc3-o21Q33p204Lgi-20" edge="1">
          <mxGeometry relative="1" as="geometry">
            <Array as="points">
              <mxPoint x="-900" y="1150" />
              <mxPoint x="-2040" y="1150" />
            </Array>
          </mxGeometry>
        </mxCell>
        <mxCell id="v4ZDc3-o21Q33p204Lgi-33" style="edgeStyle=orthogonalEdgeStyle;rounded=0;orthogonalLoop=1;jettySize=auto;html=1;exitX=0.5;exitY=1;exitDx=0;exitDy=0;entryX=0.5;entryY=0;entryDx=0;entryDy=0;" parent="1" source="v4ZDc3-o21Q33p204Lgi-5" target="v4ZDc3-o21Q33p204Lgi-21" edge="1">
          <mxGeometry relative="1" as="geometry" />
        </mxCell>
        <mxCell id="v4ZDc3-o21Q33p204Lgi-34" style="edgeStyle=orthogonalEdgeStyle;rounded=0;orthogonalLoop=1;jettySize=auto;html=1;exitX=0.5;exitY=1;exitDx=0;exitDy=0;entryX=0.5;entryY=0;entryDx=0;entryDy=0;" parent="1" source="v4ZDc3-o21Q33p204Lgi-5" target="v4ZDc3-o21Q33p204Lgi-22" edge="1">
          <mxGeometry relative="1" as="geometry">
            <Array as="points">
              <mxPoint x="-900" y="1150" />
              <mxPoint x="-1180" y="1150" />
            </Array>
          </mxGeometry>
        </mxCell>
        <mxCell id="v4ZDc3-o21Q33p204Lgi-5" value="&lt;div style=&quot;background-color:#ffffff;padding:0px 2px 0px 2px;&quot;&gt;&lt;div style=&quot;font-family: Consolas; font-size: 10pt; white-space: pre;&quot;&gt;&lt;p style=&quot;margin:0;&quot;&gt;+---+---+---+---+---+---+---+---+&lt;/p&gt;&lt;p style=&quot;margin:0;&quot;&gt;| Q | . | . | . | . | . | . | . | &lt;/p&gt;&lt;p style=&quot;margin:0;&quot;&gt;+---+---+---+---+---+---+---+---+&lt;/p&gt;&lt;p style=&quot;margin:0;&quot;&gt;| . | . | . | . | . | . | . | . | &lt;/p&gt;&lt;p style=&quot;margin:0;&quot;&gt;+---+---+---+---+---+---+---+---+&lt;/p&gt;&lt;p style=&quot;margin:0;&quot;&gt;| . | . | . | . | . | . | . | . | &lt;/p&gt;&lt;p style=&quot;margin:0;&quot;&gt;+---+---+---+---+---+---+---+---+&lt;/p&gt;&lt;p style=&quot;margin:0;&quot;&gt;| . | . | . | . | . | . | . | . | &lt;/p&gt;&lt;p style=&quot;margin:0;&quot;&gt;+---+---+---+---+---+---+---+---+&lt;/p&gt;&lt;p style=&quot;margin:0;&quot;&gt;| . | . | . | . | . | . | . | . | &lt;/p&gt;&lt;p style=&quot;margin:0;&quot;&gt;+---+---+---+---+---+---+---+---+&lt;/p&gt;&lt;p style=&quot;margin:0;&quot;&gt;| . | . | . | . | . | . | . | . | &lt;/p&gt;&lt;p style=&quot;margin:0;&quot;&gt;+---+---+---+---+---+---+---+---+&lt;/p&gt;&lt;p style=&quot;margin:0;&quot;&gt;| . | . | . | . | . | . | . | . | &lt;/p&gt;&lt;p style=&quot;margin:0;&quot;&gt;+---+---+---+---+---+---+---+---+&lt;/p&gt;&lt;p style=&quot;margin:0;&quot;&gt;| . | . | . | . | . | . | . | . | &lt;/p&gt;&lt;p style=&quot;margin:0;&quot;&gt;+---+---+---+---+---+---+---+---+&lt;/p&gt;&lt;/div&gt;&lt;/div&gt;" style="rounded=1;whiteSpace=wrap;html=1;fillColor=#d5e8d4;strokeColor=#82b366;gradientColor=#97d077;" parent="1" vertex="1">
          <mxGeometry x="-1050" y="770" width="300" height="300" as="geometry" />
        </mxCell>
        <mxCell id="v4ZDc3-o21Q33p204Lgi-6" value="&lt;div style=&quot;background-color:#ffffff;padding:0px 2px 0px 2px;&quot;&gt;&lt;div style=&quot;&quot;&gt;&lt;p style=&quot;margin: 0px;&quot;&gt;&lt;font face=&quot;Consolas&quot;&gt;&lt;span style=&quot;font-size: 13.3333px; white-space: pre;&quot;&gt;+---+---+---+---+---+---+---+---+&lt;br/&gt;| . | Q | . | . | . | . | . | . |&lt;br/&gt;+---+---+---+---+---+---+---+---+&lt;br/&gt;| . | . | . | . | . | . | . | . |&lt;br/&gt;+---+---+---+---+---+---+---+---+&lt;br/&gt;| . | . | . | . | . | . | . | . |&lt;br/&gt;+---+---+---+---+---+---+---+---+&lt;br/&gt;| . | . | . | . | . | . | . | . |&lt;br/&gt;+---+---+---+---+---+---+---+---+&lt;br/&gt;| . | . | . | . | . | . | . | . |&lt;br/&gt;+---+---+---+---+---+---+---+---+&lt;br/&gt;| . | . | . | . | . | . | . | . |&lt;br/&gt;+---+---+---+---+---+---+---+---+&lt;br/&gt;| . | . | . | . | . | . | . | . |&lt;br/&gt;+---+---+---+---+---+---+---+---+&lt;br/&gt;| . | . | . | . | . | . | . | . |&lt;br/&gt;+---+---+---+---+---+---+---+---+&lt;br/&gt;&lt;/span&gt;&lt;/font&gt;&lt;/p&gt;&lt;div style=&quot;font-family: Consolas; font-size: 10pt; white-space: pre;&quot;&gt;&lt;br&gt;&lt;/div&gt;&lt;/div&gt;&lt;/div&gt;" style="rounded=1;whiteSpace=wrap;html=1;fillColor=#f8cecc;strokeColor=#b85450;" parent="1" vertex="1">
          <mxGeometry x="-660" y="770" width="300" height="300" as="geometry" />
        </mxCell>
        <mxCell id="v4ZDc3-o21Q33p204Lgi-7" value="&lt;div style=&quot;background-color:#ffffff;padding:0px 2px 0px 2px;&quot;&gt;&lt;div style=&quot;font-family: Consolas; font-size: 10pt; white-space: pre;&quot;&gt;&lt;p style=&quot;margin:0;&quot;&gt;+---+---+---+---+---+---+---+---+&lt;/p&gt;&lt;p style=&quot;margin:0;&quot;&gt;| . | . | . | . | . | Q | . | . | &lt;/p&gt;&lt;p style=&quot;margin:0;&quot;&gt;+---+---+---+---+---+---+---+---+&lt;/p&gt;&lt;p style=&quot;margin:0;&quot;&gt;| . | . | . | . | . | . | . | . | &lt;/p&gt;&lt;p style=&quot;margin:0;&quot;&gt;+---+---+---+---+---+---+---+---+&lt;/p&gt;&lt;p style=&quot;margin:0;&quot;&gt;| . | . | . | . | . | . | . | . | &lt;/p&gt;&lt;p style=&quot;margin:0;&quot;&gt;+---+---+---+---+---+---+---+---+&lt;/p&gt;&lt;p style=&quot;margin:0;&quot;&gt;| . | . | . | . | . | . | . | . | &lt;/p&gt;&lt;p style=&quot;margin:0;&quot;&gt;+---+---+---+---+---+---+---+---+&lt;/p&gt;&lt;p style=&quot;margin:0;&quot;&gt;| . | . | . | . | . | . | . | . | &lt;/p&gt;&lt;p style=&quot;margin:0;&quot;&gt;+---+---+---+---+---+---+---+---+&lt;/p&gt;&lt;p style=&quot;margin:0;&quot;&gt;| . | . | . | . | . | . | . | . | &lt;/p&gt;&lt;p style=&quot;margin:0;&quot;&gt;+---+---+---+---+---+---+---+---+&lt;/p&gt;&lt;p style=&quot;margin:0;&quot;&gt;| . | . | . | . | . | . | . | . | &lt;/p&gt;&lt;p style=&quot;margin:0;&quot;&gt;+---+---+---+---+---+---+---+---+&lt;/p&gt;&lt;p style=&quot;margin:0;&quot;&gt;| . | . | . | . | . | . | . | . | &lt;/p&gt;&lt;p style=&quot;margin:0;&quot;&gt;+---+---+---+---+---+---+---+---+&lt;/p&gt;&lt;/div&gt;&lt;/div&gt;" style="rounded=1;whiteSpace=wrap;html=1;fillColor=#f8cecc;strokeColor=#b85450;" parent="1" vertex="1">
          <mxGeometry x="970" y="750" width="300" height="300" as="geometry" />
        </mxCell>
        <mxCell id="v4ZDc3-o21Q33p204Lgi-8" value="&lt;div style=&quot;background-color:#ffffff;padding:0px 2px 0px 2px;&quot;&gt;&lt;div style=&quot;font-family: Consolas; font-size: 10pt; white-space: pre;&quot;&gt;&lt;p style=&quot;margin:0;&quot;&gt;+---+---+---+---+---+---+---+---+&lt;/p&gt;&lt;p style=&quot;margin:0;&quot;&gt;| . | . | . | . | Q | . | . | . | &lt;/p&gt;&lt;p style=&quot;margin:0;&quot;&gt;+---+---+---+---+---+---+---+---+&lt;/p&gt;&lt;p style=&quot;margin:0;&quot;&gt;| . | . | . | . | . | . | . | . | &lt;/p&gt;&lt;p style=&quot;margin:0;&quot;&gt;+---+---+---+---+---+---+---+---+&lt;/p&gt;&lt;p style=&quot;margin:0;&quot;&gt;| . | . | . | . | . | . | . | . | &lt;/p&gt;&lt;p style=&quot;margin:0;&quot;&gt;+---+---+---+---+---+---+---+---+&lt;/p&gt;&lt;p style=&quot;margin:0;&quot;&gt;| . | . | . | . | . | . | . | . | &lt;/p&gt;&lt;p style=&quot;margin:0;&quot;&gt;+---+---+---+---+---+---+---+---+&lt;/p&gt;&lt;p style=&quot;margin:0;&quot;&gt;| . | . | . | . | . | . | . | . | &lt;/p&gt;&lt;p style=&quot;margin:0;&quot;&gt;+---+---+---+---+---+---+---+---+&lt;/p&gt;&lt;p style=&quot;margin:0;&quot;&gt;| . | . | . | . | . | . | . | . | &lt;/p&gt;&lt;p style=&quot;margin:0;&quot;&gt;+---+---+---+---+---+---+---+---+&lt;/p&gt;&lt;p style=&quot;margin:0;&quot;&gt;| . | . | . | . | . | . | . | . | &lt;/p&gt;&lt;p style=&quot;margin:0;&quot;&gt;+---+---+---+---+---+---+---+---+&lt;/p&gt;&lt;p style=&quot;margin:0;&quot;&gt;| . | . | . | . | . | . | . | . | &lt;/p&gt;&lt;p style=&quot;margin:0;&quot;&gt;+---+---+---+---+---+---+---+---+&lt;/p&gt;&lt;/div&gt;&lt;/div&gt;" style="rounded=1;whiteSpace=wrap;html=1;fillColor=#f8cecc;strokeColor=#b85450;" parent="1" vertex="1">
          <mxGeometry x="600" y="760" width="300" height="300" as="geometry" />
        </mxCell>
        <mxCell id="v4ZDc3-o21Q33p204Lgi-9" value="&lt;div style=&quot;background-color:#ffffff;padding:0px 2px 0px 2px;&quot;&gt;&lt;div style=&quot;font-family: Consolas; font-size: 10pt; white-space: pre;&quot;&gt;&lt;p style=&quot;margin:0;&quot;&gt;+---+---+---+---+---+---+---+---+&lt;/p&gt;&lt;p style=&quot;margin:0;&quot;&gt;| . | . | . | Q | . | . | . | . | &lt;/p&gt;&lt;p style=&quot;margin:0;&quot;&gt;+---+---+---+---+---+---+---+---+&lt;/p&gt;&lt;p style=&quot;margin:0;&quot;&gt;| . | . | . | . | . | . | . | . | &lt;/p&gt;&lt;p style=&quot;margin:0;&quot;&gt;+---+---+---+---+---+---+---+---+&lt;/p&gt;&lt;p style=&quot;margin:0;&quot;&gt;| . | . | . | . | . | . | . | . | &lt;/p&gt;&lt;p style=&quot;margin:0;&quot;&gt;+---+---+---+---+---+---+---+---+&lt;/p&gt;&lt;p style=&quot;margin:0;&quot;&gt;| . | . | . | . | . | . | . | . | &lt;/p&gt;&lt;p style=&quot;margin:0;&quot;&gt;+---+---+---+---+---+---+---+---+&lt;/p&gt;&lt;p style=&quot;margin:0;&quot;&gt;| . | . | . | . | . | . | . | . | &lt;/p&gt;&lt;p style=&quot;margin:0;&quot;&gt;+---+---+---+---+---+---+---+---+&lt;/p&gt;&lt;p style=&quot;margin:0;&quot;&gt;| . | . | . | . | . | . | . | . | &lt;/p&gt;&lt;p style=&quot;margin:0;&quot;&gt;+---+---+---+---+---+---+---+---+&lt;/p&gt;&lt;p style=&quot;margin:0;&quot;&gt;| . | . | . | . | . | . | . | . | &lt;/p&gt;&lt;p style=&quot;margin:0;&quot;&gt;+---+---+---+---+---+---+---+---+&lt;/p&gt;&lt;p style=&quot;margin:0;&quot;&gt;| . | . | . | . | . | . | . | . | &lt;/p&gt;&lt;p style=&quot;margin:0;&quot;&gt;+---+---+---+---+---+---+---+---+&lt;/p&gt;&lt;/div&gt;&lt;/div&gt;" style="rounded=1;whiteSpace=wrap;html=1;fillColor=#f8cecc;strokeColor=#b85450;" parent="1" vertex="1">
          <mxGeometry x="170" y="760" width="300" height="300" as="geometry" />
        </mxCell>
        <mxCell id="v4ZDc3-o21Q33p204Lgi-10" value="&lt;div style=&quot;background-color:#ffffff;padding:0px 2px 0px 2px;&quot;&gt;&lt;div style=&quot;font-family: Consolas; font-size: 10pt; white-space: pre;&quot;&gt;&lt;p style=&quot;margin:0;&quot;&gt;+---+---+---+---+---+---+---+---+&lt;/p&gt;&lt;p style=&quot;margin:0;&quot;&gt;| . | . | Q | . | . | . | . | . | &lt;/p&gt;&lt;p style=&quot;margin:0;&quot;&gt;+---+---+---+---+---+---+---+---+&lt;/p&gt;&lt;p style=&quot;margin:0;&quot;&gt;| . | . | . | . | . | . | . | . | &lt;/p&gt;&lt;p style=&quot;margin:0;&quot;&gt;+---+---+---+---+---+---+---+---+&lt;/p&gt;&lt;p style=&quot;margin:0;&quot;&gt;| . | . | . | . | . | . | . | . | &lt;/p&gt;&lt;p style=&quot;margin:0;&quot;&gt;+---+---+---+---+---+---+---+---+&lt;/p&gt;&lt;p style=&quot;margin:0;&quot;&gt;| . | . | . | . | . | . | . | . | &lt;/p&gt;&lt;p style=&quot;margin:0;&quot;&gt;+---+---+---+---+---+---+---+---+&lt;/p&gt;&lt;p style=&quot;margin:0;&quot;&gt;| . | . | . | . | . | . | . | . | &lt;/p&gt;&lt;p style=&quot;margin:0;&quot;&gt;+---+---+---+---+---+---+---+---+&lt;/p&gt;&lt;p style=&quot;margin:0;&quot;&gt;| . | . | . | . | . | . | . | . | &lt;/p&gt;&lt;p style=&quot;margin:0;&quot;&gt;+---+---+---+---+---+---+---+---+&lt;/p&gt;&lt;p style=&quot;margin:0;&quot;&gt;| . | . | . | . | . | . | . | . | &lt;/p&gt;&lt;p style=&quot;margin:0;&quot;&gt;+---+---+---+---+---+---+---+---+&lt;/p&gt;&lt;p style=&quot;margin:0;&quot;&gt;| . | . | . | . | . | . | . | . | &lt;/p&gt;&lt;p style=&quot;margin:0;&quot;&gt;+---+---+---+---+---+---+---+---+&lt;/p&gt;&lt;/div&gt;&lt;/div&gt;" style="rounded=1;whiteSpace=wrap;html=1;fillColor=#f8cecc;strokeColor=#b85450;" parent="1" vertex="1">
          <mxGeometry x="-240" y="760" width="300" height="300" as="geometry" />
        </mxCell>
        <mxCell id="v4ZDc3-o21Q33p204Lgi-11" style="edgeStyle=orthogonalEdgeStyle;rounded=0;orthogonalLoop=1;jettySize=auto;html=1;entryX=0.533;entryY=-0.008;entryDx=0;entryDy=0;entryPerimeter=0;exitX=1.004;exitY=0.908;exitDx=0;exitDy=0;exitPerimeter=0;" parent="1" source="v4ZDc3-o21Q33p204Lgi-1" target="v4ZDc3-o21Q33p204Lgi-4" edge="1">
          <mxGeometry relative="1" as="geometry" />
        </mxCell>
        <mxCell id="v4ZDc3-o21Q33p204Lgi-13" style="edgeStyle=orthogonalEdgeStyle;rounded=0;orthogonalLoop=1;jettySize=auto;html=1;entryX=0.533;entryY=0;entryDx=0;entryDy=0;entryPerimeter=0;" parent="1" target="v4ZDc3-o21Q33p204Lgi-8" edge="1">
          <mxGeometry relative="1" as="geometry">
            <mxPoint x="620" y="530" as="sourcePoint" />
            <Array as="points">
              <mxPoint x="620" y="530" />
              <mxPoint x="760" y="530" />
            </Array>
          </mxGeometry>
        </mxCell>
        <mxCell id="v4ZDc3-o21Q33p204Lgi-16" style="edgeStyle=orthogonalEdgeStyle;rounded=0;orthogonalLoop=1;jettySize=auto;html=1;exitX=0;exitY=0.75;exitDx=0;exitDy=0;entryX=0.433;entryY=0;entryDx=0;entryDy=0;entryPerimeter=0;" parent="1" source="v4ZDc3-o21Q33p204Lgi-1" target="v4ZDc3-o21Q33p204Lgi-9" edge="1">
          <mxGeometry relative="1" as="geometry">
            <Array as="points">
              <mxPoint x="320" y="530" />
              <mxPoint x="300" y="530" />
            </Array>
          </mxGeometry>
        </mxCell>
        <mxCell id="v4ZDc3-o21Q33p204Lgi-19" value="&lt;div style=&quot;background-color:#ffffff;padding:0px 2px 0px 2px;&quot;&gt;&lt;div style=&quot;&quot;&gt;&lt;p style=&quot;margin: 0px;&quot;&gt;&lt;font face=&quot;Consolas&quot;&gt;&lt;span style=&quot;font-size: 13.3333px; white-space: pre;&quot;&gt;+---+---+---+---+---+---+---+---+&lt;br/&gt;| Q | . | . | . | . | . | . | . |&lt;br/&gt;+---+---+---+---+---+---+---+---+&lt;br/&gt;| . | Q | . | . | . | . | . | . |&lt;br/&gt;+---+---+---+---+---+---+---+---+&lt;br/&gt;| . | . | . | . | . | . | . | . |&lt;br/&gt;+---+---+---+---+---+---+---+---+&lt;br/&gt;| . | . | . | . | . | . | . | . |&lt;br/&gt;+---+---+---+---+---+---+---+---+&lt;br/&gt;| . | . | . | . | . | . | . | . |&lt;br/&gt;+---+---+---+---+---+---+---+---+&lt;br/&gt;| . | . | . | . | . | . | . | . |&lt;br/&gt;+---+---+---+---+---+---+---+---+&lt;br/&gt;| . | . | . | . | . | . | . | . |&lt;br/&gt;+---+---+---+---+---+---+---+---+&lt;br/&gt;| . | . | . | . | . | . | . | . |&lt;br/&gt;+---+---+---+---+---+---+---+---+&lt;br/&gt;&lt;/span&gt;&lt;/font&gt;&lt;/p&gt;&lt;div style=&quot;font-family: Consolas; font-size: 10pt; white-space: pre;&quot;&gt;&lt;br&gt;&lt;/div&gt;&lt;/div&gt;&lt;/div&gt;" style="rounded=1;whiteSpace=wrap;html=1;fillColor=#f8cecc;strokeColor=#b85450;" parent="1" vertex="1">
          <mxGeometry x="-2620" y="1230" width="300" height="300" as="geometry" />
        </mxCell>
        <mxCell id="v4ZDc3-o21Q33p204Lgi-20" value="&lt;div style=&quot;background-color:#ffffff;padding:0px 2px 0px 2px;&quot;&gt;&lt;div style=&quot;&quot;&gt;&lt;p style=&quot;margin: 0px;&quot;&gt;&lt;font face=&quot;Consolas&quot;&gt;&lt;span style=&quot;font-size: 13.3333px; white-space: pre;&quot;&gt;+---+---+---+---+---+---+---+---+&lt;br/&gt;| Q | . | . | . | . | . | . | . |&lt;br/&gt;+---+---+---+---+---+---+---+---+&lt;br/&gt;| . | . | Q | . | . | . | . | . |&lt;br/&gt;+---+---+---+---+---+---+---+---+&lt;br/&gt;| . | . | . | . | . | . | . | . |&lt;br/&gt;+---+---+---+---+---+---+---+---+&lt;br/&gt;| . | . | . | . | . | . | . | . |&lt;br/&gt;+---+---+---+---+---+---+---+---+&lt;br/&gt;| . | . | . | . | . | . | . | . |&lt;br/&gt;+---+---+---+---+---+---+---+---+&lt;br/&gt;| . | . | . | . | . | . | . | . |&lt;br/&gt;+---+---+---+---+---+---+---+---+&lt;br/&gt;| . | . | . | . | . | . | . | . |&lt;br/&gt;+---+---+---+---+---+---+---+---+&lt;br/&gt;| . | . | . | . | . | . | . | . |&lt;br/&gt;+---+---+---+---+---+---+---+---+&lt;br/&gt;&lt;/span&gt;&lt;/font&gt;&lt;/p&gt;&lt;div style=&quot;font-family: Consolas; font-size: 10pt; white-space: pre;&quot;&gt;&lt;br&gt;&lt;/div&gt;&lt;/div&gt;&lt;/div&gt;" style="rounded=1;whiteSpace=wrap;html=1;fillColor=#f8cecc;strokeColor=#b85450;" parent="1" vertex="1">
          <mxGeometry x="-2190" y="1240" width="300" height="300" as="geometry" />
        </mxCell>
        <mxCell id="v4ZDc3-o21Q33p204Lgi-21" value="&lt;div style=&quot;background-color:#ffffff;padding:0px 2px 0px 2px;&quot;&gt;&lt;div style=&quot;&quot;&gt;&lt;p style=&quot;margin: 0px;&quot;&gt;&lt;font face=&quot;Consolas&quot;&gt;&lt;span style=&quot;font-size: 13.3333px; white-space: pre;&quot;&gt;+---+---+---+---+---+---+---+---+&lt;br/&gt;| Q | . | . | . | . | . | . | . |&lt;br/&gt;+---+---+---+---+---+---+---+---+&lt;br/&gt;| . | . | . | Q | . | . | . | . |&lt;br/&gt;+---+---+---+---+---+---+---+---+&lt;br/&gt;| . | . | . | . | . | . | . | . |&lt;br/&gt;+---+---+---+---+---+---+---+---+&lt;br/&gt;| . | . | . | . | . | . | . | . |&lt;br/&gt;+---+---+---+---+---+---+---+---+&lt;br/&gt;| . | . | . | . | . | . | . | . |&lt;br/&gt;+---+---+---+---+---+---+---+---+&lt;br/&gt;| . | . | . | . | . | . | . | . |&lt;br/&gt;+---+---+---+---+---+---+---+---+&lt;br/&gt;| . | . | . | . | . | . | . | . |&lt;br/&gt;+---+---+---+---+---+---+---+---+&lt;br/&gt;| . | . | . | . | . | . | . | . |&lt;br/&gt;+---+---+---+---+---+---+---+---+&lt;br/&gt;&lt;/span&gt;&lt;/font&gt;&lt;/p&gt;&lt;div style=&quot;font-family: Consolas; font-size: 10pt; white-space: pre;&quot;&gt;&lt;br&gt;&lt;/div&gt;&lt;/div&gt;&lt;/div&gt;" style="rounded=1;whiteSpace=wrap;html=1;fillColor=#f8cecc;strokeColor=#b85450;" parent="1" vertex="1">
          <mxGeometry x="-1760" y="1230" width="300" height="300" as="geometry" />
        </mxCell>
        <mxCell id="v4ZDc3-o21Q33p204Lgi-36" style="edgeStyle=orthogonalEdgeStyle;rounded=0;orthogonalLoop=1;jettySize=auto;html=1;exitX=0.5;exitY=1;exitDx=0;exitDy=0;entryX=0.5;entryY=0;entryDx=0;entryDy=0;" parent="1" source="v4ZDc3-o21Q33p204Lgi-22" target="v4ZDc3-o21Q33p204Lgi-35" edge="1">
          <mxGeometry relative="1" as="geometry" />
        </mxCell>
        <mxCell id="v4ZDc3-o21Q33p204Lgi-92" style="edgeStyle=orthogonalEdgeStyle;rounded=0;orthogonalLoop=1;jettySize=auto;html=1;exitX=0.5;exitY=1;exitDx=0;exitDy=0;" parent="1" source="v4ZDc3-o21Q33p204Lgi-22" target="v4ZDc3-o21Q33p204Lgi-85" edge="1">
          <mxGeometry relative="1" as="geometry">
            <Array as="points">
              <mxPoint x="-1180" y="1670" />
              <mxPoint x="750" y="1670" />
            </Array>
          </mxGeometry>
        </mxCell>
        <mxCell id="v4ZDc3-o21Q33p204Lgi-93" style="edgeStyle=orthogonalEdgeStyle;rounded=0;orthogonalLoop=1;jettySize=auto;html=1;exitX=0.5;exitY=1;exitDx=0;exitDy=0;" parent="1" source="v4ZDc3-o21Q33p204Lgi-22" target="v4ZDc3-o21Q33p204Lgi-89" edge="1">
          <mxGeometry relative="1" as="geometry">
            <Array as="points">
              <mxPoint x="-1180" y="1670" />
              <mxPoint x="270" y="1670" />
            </Array>
          </mxGeometry>
        </mxCell>
        <mxCell id="v4ZDc3-o21Q33p204Lgi-94" style="edgeStyle=orthogonalEdgeStyle;rounded=0;orthogonalLoop=1;jettySize=auto;html=1;exitX=0.5;exitY=1;exitDx=0;exitDy=0;entryX=0.5;entryY=0;entryDx=0;entryDy=0;" parent="1" source="v4ZDc3-o21Q33p204Lgi-22" target="v4ZDc3-o21Q33p204Lgi-90" edge="1">
          <mxGeometry relative="1" as="geometry">
            <Array as="points">
              <mxPoint x="-1180" y="1670" />
              <mxPoint x="-160" y="1670" />
            </Array>
          </mxGeometry>
        </mxCell>
        <mxCell id="v4ZDc3-o21Q33p204Lgi-95" style="edgeStyle=orthogonalEdgeStyle;rounded=0;orthogonalLoop=1;jettySize=auto;html=1;exitX=0.5;exitY=1;exitDx=0;exitDy=0;entryX=0.5;entryY=0;entryDx=0;entryDy=0;" parent="1" source="v4ZDc3-o21Q33p204Lgi-22" target="v4ZDc3-o21Q33p204Lgi-91" edge="1">
          <mxGeometry relative="1" as="geometry">
            <Array as="points">
              <mxPoint x="-1180" y="1670" />
              <mxPoint x="-650" y="1670" />
            </Array>
          </mxGeometry>
        </mxCell>
        <mxCell id="v4ZDc3-o21Q33p204Lgi-96" style="edgeStyle=orthogonalEdgeStyle;rounded=0;orthogonalLoop=1;jettySize=auto;html=1;exitX=0.5;exitY=1;exitDx=0;exitDy=0;entryX=0.5;entryY=0;entryDx=0;entryDy=0;" parent="1" source="v4ZDc3-o21Q33p204Lgi-22" target="v4ZDc3-o21Q33p204Lgi-88" edge="1">
          <mxGeometry relative="1" as="geometry">
            <Array as="points">
              <mxPoint x="-1180" y="1670" />
              <mxPoint x="-1710" y="1670" />
            </Array>
          </mxGeometry>
        </mxCell>
        <mxCell id="v4ZDc3-o21Q33p204Lgi-97" style="edgeStyle=orthogonalEdgeStyle;rounded=0;orthogonalLoop=1;jettySize=auto;html=1;exitX=0.5;exitY=1;exitDx=0;exitDy=0;entryX=0.5;entryY=0;entryDx=0;entryDy=0;" parent="1" source="v4ZDc3-o21Q33p204Lgi-22" target="v4ZDc3-o21Q33p204Lgi-87" edge="1">
          <mxGeometry relative="1" as="geometry">
            <Array as="points">
              <mxPoint x="-1180" y="1670" />
              <mxPoint x="-2160" y="1670" />
            </Array>
          </mxGeometry>
        </mxCell>
        <mxCell id="v4ZDc3-o21Q33p204Lgi-98" style="edgeStyle=orthogonalEdgeStyle;rounded=0;orthogonalLoop=1;jettySize=auto;html=1;exitX=0.5;exitY=1;exitDx=0;exitDy=0;" parent="1" source="v4ZDc3-o21Q33p204Lgi-22" target="v4ZDc3-o21Q33p204Lgi-86" edge="1">
          <mxGeometry relative="1" as="geometry">
            <Array as="points">
              <mxPoint x="-1180" y="1670" />
              <mxPoint x="-2600" y="1670" />
            </Array>
          </mxGeometry>
        </mxCell>
        <mxCell id="v4ZDc3-o21Q33p204Lgi-22" value="&lt;div style=&quot;background-color:#ffffff;padding:0px 2px 0px 2px;&quot;&gt;&lt;div style=&quot;&quot;&gt;&lt;p style=&quot;margin: 0px;&quot;&gt;&lt;font face=&quot;Consolas&quot;&gt;&lt;span style=&quot;font-size: 13.3333px; white-space: pre;&quot;&gt;+---+---+---+---+---+---+---+---+&lt;br/&gt;| Q | . | . | . | . | . | . | . |&lt;br/&gt;+---+---+---+---+---+---+---+---+&lt;br/&gt;| . | . | . | . | Q | . | . | . |&lt;br/&gt;+---+---+---+---+---+---+---+---+&lt;br/&gt;| . | . | . | . | . | . | . | . |&lt;br/&gt;+---+---+---+---+---+---+---+---+&lt;br/&gt;| . | . | . | . | . | . | . | . |&lt;br/&gt;+---+---+---+---+---+---+---+---+&lt;br/&gt;| . | . | . | . | . | . | . | . |&lt;br/&gt;+---+---+---+---+---+---+---+---+&lt;br/&gt;| . | . | . | . | . | . | . | . |&lt;br/&gt;+---+---+---+---+---+---+---+---+&lt;br/&gt;| . | . | . | . | . | . | . | . |&lt;br/&gt;+---+---+---+---+---+---+---+---+&lt;br/&gt;| . | . | . | . | . | . | . | . |&lt;br/&gt;+---+---+---+---+---+---+---+---+&lt;br/&gt;&lt;/span&gt;&lt;/font&gt;&lt;/p&gt;&lt;div style=&quot;font-family: Consolas; font-size: 10pt; white-space: pre;&quot;&gt;&lt;br&gt;&lt;/div&gt;&lt;/div&gt;&lt;/div&gt;" style="rounded=1;whiteSpace=wrap;html=1;fillColor=#d5e8d4;strokeColor=#82b366;gradientColor=#97d077;" parent="1" vertex="1">
          <mxGeometry x="-1330" y="1220" width="300" height="300" as="geometry" />
        </mxCell>
        <mxCell id="v4ZDc3-o21Q33p204Lgi-23" value="&lt;div style=&quot;background-color:#ffffff;padding:0px 2px 0px 2px;&quot;&gt;&lt;div style=&quot;&quot;&gt;&lt;p style=&quot;margin: 0px;&quot;&gt;&lt;font face=&quot;Consolas&quot;&gt;&lt;span style=&quot;font-size: 13.3333px; white-space: pre;&quot;&gt;+---+---+---+---+---+---+---+---+&lt;br/&gt;| Q | . | . | . | . | . | . | . |&lt;br/&gt;+---+---+---+---+---+---+---+---+&lt;br/&gt;| . | . | . | . | . | Q | . | . |&lt;br/&gt;+---+---+---+---+---+---+---+---+&lt;br/&gt;| . | . | . | . | . | . | . | . |&lt;br/&gt;+---+---+---+---+---+---+---+---+&lt;br/&gt;| . | . | . | . | . | . | . | . |&lt;br/&gt;+---+---+---+---+---+---+---+---+&lt;br/&gt;| . | . | . | . | . | . | . | . |&lt;br/&gt;+---+---+---+---+---+---+---+---+&lt;br/&gt;| . | . | . | . | . | . | . | . |&lt;br/&gt;+---+---+---+---+---+---+---+---+&lt;br/&gt;| . | . | . | . | . | . | . | . |&lt;br/&gt;+---+---+---+---+---+---+---+---+&lt;br/&gt;| . | . | . | . | . | . | . | . |&lt;br/&gt;+---+---+---+---+---+---+---+---+&lt;br/&gt;&lt;/span&gt;&lt;/font&gt;&lt;/p&gt;&lt;div style=&quot;font-family: Consolas; font-size: 10pt; white-space: pre;&quot;&gt;&lt;br&gt;&lt;/div&gt;&lt;/div&gt;&lt;/div&gt;" style="rounded=1;whiteSpace=wrap;html=1;fillColor=#f8cecc;strokeColor=#b85450;" parent="1" vertex="1">
          <mxGeometry x="-630" y="1230" width="300" height="300" as="geometry" />
        </mxCell>
        <mxCell id="v4ZDc3-o21Q33p204Lgi-24" value="&lt;div style=&quot;background-color:#ffffff;padding:0px 2px 0px 2px;&quot;&gt;&lt;div style=&quot;&quot;&gt;&lt;p style=&quot;margin: 0px;&quot;&gt;&lt;font face=&quot;Consolas&quot;&gt;&lt;span style=&quot;font-size: 13.3333px; white-space: pre;&quot;&gt;+---+---+---+---+---+---+---+---+&lt;br/&gt;| Q | . | . | . | . | . | . | . |&lt;br/&gt;+---+---+---+---+---+---+---+---+&lt;br/&gt;| . | . | . | . | . | . | Q | . |&lt;br/&gt;+---+---+---+---+---+---+---+---+&lt;br/&gt;| . | . | . | . | . | . | . | . |&lt;br/&gt;+---+---+---+---+---+---+---+---+&lt;br/&gt;| . | . | . | . | . | . | . | . |&lt;br/&gt;+---+---+---+---+---+---+---+---+&lt;br/&gt;| . | . | . | . | . | . | . | . |&lt;br/&gt;+---+---+---+---+---+---+---+---+&lt;br/&gt;| . | . | . | . | . | . | . | . |&lt;br/&gt;+---+---+---+---+---+---+---+---+&lt;br/&gt;| . | . | . | . | . | . | . | . |&lt;br/&gt;+---+---+---+---+---+---+---+---+&lt;br/&gt;| . | . | . | . | . | . | . | . |&lt;br/&gt;+---+---+---+---+---+---+---+---+&lt;br/&gt;&lt;/span&gt;&lt;/font&gt;&lt;/p&gt;&lt;div style=&quot;font-family: Consolas; font-size: 10pt; white-space: pre;&quot;&gt;&lt;br&gt;&lt;/div&gt;&lt;/div&gt;&lt;/div&gt;" style="rounded=1;whiteSpace=wrap;html=1;fillColor=#f8cecc;strokeColor=#b85450;" parent="1" vertex="1">
          <mxGeometry x="-210" y="1230" width="300" height="300" as="geometry" />
        </mxCell>
        <mxCell id="v4ZDc3-o21Q33p204Lgi-25" value="&lt;div style=&quot;background-color:#ffffff;padding:0px 2px 0px 2px;&quot;&gt;&lt;div style=&quot;&quot;&gt;&lt;p style=&quot;margin: 0px;&quot;&gt;&lt;font face=&quot;Consolas&quot;&gt;&lt;span style=&quot;font-size: 13.3333px; white-space: pre;&quot;&gt;+---+---+---+---+---+---+---+---+&lt;br/&gt;| Q | . | . | . | . | . | . | . |&lt;br/&gt;+---+---+---+---+---+---+---+---+&lt;br/&gt;| . | . | . | . | . | . | . | Q |&lt;br/&gt;+---+---+---+---+---+---+---+---+&lt;br/&gt;| . | . | . | . | . | . | . | . |&lt;br/&gt;+---+---+---+---+---+---+---+---+&lt;br/&gt;| . | . | . | . | . | . | . | . |&lt;br/&gt;+---+---+---+---+---+---+---+---+&lt;br/&gt;| . | . | . | . | . | . | . | . |&lt;br/&gt;+---+---+---+---+---+---+---+---+&lt;br/&gt;| . | . | . | . | . | . | . | . |&lt;br/&gt;+---+---+---+---+---+---+---+---+&lt;br/&gt;| . | . | . | . | . | . | . | . |&lt;br/&gt;+---+---+---+---+---+---+---+---+&lt;br/&gt;| . | . | . | . | . | . | . | . |&lt;br/&gt;+---+---+---+---+---+---+---+---+&lt;br/&gt;&lt;/span&gt;&lt;/font&gt;&lt;/p&gt;&lt;div style=&quot;font-family: Consolas; font-size: 10pt; white-space: pre;&quot;&gt;&lt;br&gt;&lt;/div&gt;&lt;/div&gt;&lt;/div&gt;" style="rounded=1;whiteSpace=wrap;html=1;fillColor=#f8cecc;strokeColor=#b85450;" parent="1" vertex="1">
          <mxGeometry x="190" y="1220" width="300" height="300" as="geometry" />
        </mxCell>
        <mxCell id="v4ZDc3-o21Q33p204Lgi-26" value="&lt;div style=&quot;background-color:#ffffff;padding:0px 2px 0px 2px;&quot;&gt;&lt;div style=&quot;font-family: Consolas; font-size: 10pt; white-space: pre;&quot;&gt;&lt;p style=&quot;margin:0;&quot;&gt;+---+---+---+---+---+---+---+---+&lt;/p&gt;&lt;p style=&quot;margin:0;&quot;&gt;| Q | . | . | . | . | . | . | . | &lt;/p&gt;&lt;p style=&quot;margin:0;&quot;&gt;+---+---+---+---+---+---+---+---+&lt;/p&gt;&lt;p style=&quot;margin:0;&quot;&gt;| Q | . | . | . | . | . | . | . | &lt;/p&gt;&lt;p style=&quot;margin:0;&quot;&gt;+---+---+---+---+---+---+---+---+&lt;/p&gt;&lt;p style=&quot;margin:0;&quot;&gt;| . | . | . | . | . | . | . | . | &lt;/p&gt;&lt;p style=&quot;margin:0;&quot;&gt;+---+---+---+---+---+---+---+---+&lt;/p&gt;&lt;p style=&quot;margin:0;&quot;&gt;| . | . | . | . | . | . | . | . | &lt;/p&gt;&lt;p style=&quot;margin:0;&quot;&gt;+---+---+---+---+---+---+---+---+&lt;/p&gt;&lt;p style=&quot;margin:0;&quot;&gt;| . | . | . | . | . | . | . | . | &lt;/p&gt;&lt;p style=&quot;margin:0;&quot;&gt;+---+---+---+---+---+---+---+---+&lt;/p&gt;&lt;p style=&quot;margin:0;&quot;&gt;| . | . | . | . | . | . | . | . | &lt;/p&gt;&lt;p style=&quot;margin:0;&quot;&gt;+---+---+---+---+---+---+---+---+&lt;/p&gt;&lt;p style=&quot;margin:0;&quot;&gt;| . | . | . | . | . | . | . | . | &lt;/p&gt;&lt;p style=&quot;margin:0;&quot;&gt;+---+---+---+---+---+---+---+---+&lt;/p&gt;&lt;p style=&quot;margin:0;&quot;&gt;| . | . | . | . | . | . | . | . | &lt;/p&gt;&lt;p style=&quot;margin:0;&quot;&gt;+---+---+---+---+---+---+---+---+&lt;/p&gt;&lt;/div&gt;&lt;/div&gt;" style="rounded=1;whiteSpace=wrap;html=1;fillColor=#f8cecc;strokeColor=#b85450;" parent="1" vertex="1">
          <mxGeometry x="610" y="1220" width="300" height="300" as="geometry" />
        </mxCell>
        <mxCell id="v4ZDc3-o21Q33p204Lgi-37" style="edgeStyle=orthogonalEdgeStyle;rounded=0;orthogonalLoop=1;jettySize=auto;html=1;exitX=0.5;exitY=1;exitDx=0;exitDy=0;entryX=0.5;entryY=0;entryDx=0;entryDy=0;" parent="1" target="v4ZDc3-o21Q33p204Lgi-76" edge="1">
          <mxGeometry relative="1" as="geometry">
            <mxPoint x="-1175.0000000000005" y="2349.9999999999995" as="targetPoint" />
            <mxPoint x="-1185.0000000000005" y="2140" as="sourcePoint" />
            <Array as="points">
              <mxPoint x="-1180" y="2140" />
            </Array>
          </mxGeometry>
        </mxCell>
        <mxCell id="v4ZDc3-o21Q33p204Lgi-106" style="edgeStyle=orthogonalEdgeStyle;rounded=0;orthogonalLoop=1;jettySize=auto;html=1;exitX=0.5;exitY=1;exitDx=0;exitDy=0;entryX=0.5;entryY=0;entryDx=0;entryDy=0;" parent="1" source="v4ZDc3-o21Q33p204Lgi-35" target="v4ZDc3-o21Q33p204Lgi-105" edge="1">
          <mxGeometry relative="1" as="geometry">
            <Array as="points">
              <mxPoint x="-1180" y="2250" />
              <mxPoint x="-640" y="2250" />
            </Array>
          </mxGeometry>
        </mxCell>
        <mxCell id="v4ZDc3-o21Q33p204Lgi-107" style="edgeStyle=orthogonalEdgeStyle;rounded=0;orthogonalLoop=1;jettySize=auto;html=1;exitX=0.5;exitY=1;exitDx=0;exitDy=0;entryX=0.5;entryY=0;entryDx=0;entryDy=0;" parent="1" source="v4ZDc3-o21Q33p204Lgi-35" target="v4ZDc3-o21Q33p204Lgi-104" edge="1">
          <mxGeometry relative="1" as="geometry">
            <Array as="points">
              <mxPoint x="-1180" y="2250" />
              <mxPoint x="-160" y="2250" />
            </Array>
          </mxGeometry>
        </mxCell>
        <mxCell id="v4ZDc3-o21Q33p204Lgi-108" style="edgeStyle=orthogonalEdgeStyle;rounded=0;orthogonalLoop=1;jettySize=auto;html=1;exitX=0.5;exitY=1;exitDx=0;exitDy=0;entryX=0.5;entryY=0;entryDx=0;entryDy=0;" parent="1" source="v4ZDc3-o21Q33p204Lgi-35" target="v4ZDc3-o21Q33p204Lgi-103" edge="1">
          <mxGeometry relative="1" as="geometry">
            <Array as="points">
              <mxPoint x="-1180" y="2250" />
              <mxPoint x="310" y="2250" />
            </Array>
          </mxGeometry>
        </mxCell>
        <mxCell id="v4ZDc3-o21Q33p204Lgi-109" style="edgeStyle=orthogonalEdgeStyle;rounded=0;orthogonalLoop=1;jettySize=auto;html=1;exitX=0.5;exitY=1;exitDx=0;exitDy=0;entryX=0.5;entryY=0;entryDx=0;entryDy=0;" parent="1" source="v4ZDc3-o21Q33p204Lgi-35" target="v4ZDc3-o21Q33p204Lgi-102" edge="1">
          <mxGeometry relative="1" as="geometry">
            <Array as="points">
              <mxPoint x="-1180" y="2250" />
              <mxPoint x="-1630" y="2250" />
            </Array>
          </mxGeometry>
        </mxCell>
        <mxCell id="v4ZDc3-o21Q33p204Lgi-110" style="edgeStyle=orthogonalEdgeStyle;rounded=0;orthogonalLoop=1;jettySize=auto;html=1;exitX=0.5;exitY=1;exitDx=0;exitDy=0;entryX=0.5;entryY=0;entryDx=0;entryDy=0;" parent="1" source="v4ZDc3-o21Q33p204Lgi-35" target="v4ZDc3-o21Q33p204Lgi-101" edge="1">
          <mxGeometry relative="1" as="geometry">
            <Array as="points">
              <mxPoint x="-1180" y="2250" />
              <mxPoint x="-2050" y="2250" />
            </Array>
          </mxGeometry>
        </mxCell>
        <mxCell id="v4ZDc3-o21Q33p204Lgi-111" style="edgeStyle=orthogonalEdgeStyle;rounded=0;orthogonalLoop=1;jettySize=auto;html=1;exitX=0.5;exitY=1;exitDx=0;exitDy=0;" parent="1" source="v4ZDc3-o21Q33p204Lgi-35" target="v4ZDc3-o21Q33p204Lgi-100" edge="1">
          <mxGeometry relative="1" as="geometry">
            <Array as="points">
              <mxPoint x="-1180" y="2250" />
              <mxPoint x="-2530" y="2250" />
            </Array>
          </mxGeometry>
        </mxCell>
        <mxCell id="v4ZDc3-o21Q33p204Lgi-112" style="edgeStyle=orthogonalEdgeStyle;rounded=0;orthogonalLoop=1;jettySize=auto;html=1;exitX=0.5;exitY=1;exitDx=0;exitDy=0;entryX=0.5;entryY=0;entryDx=0;entryDy=0;" parent="1" source="v4ZDc3-o21Q33p204Lgi-35" target="v4ZDc3-o21Q33p204Lgi-99" edge="1">
          <mxGeometry relative="1" as="geometry">
            <Array as="points">
              <mxPoint x="-1180" y="2250" />
              <mxPoint x="-2975" y="2250" />
            </Array>
          </mxGeometry>
        </mxCell>
        <mxCell id="v4ZDc3-o21Q33p204Lgi-35" value="&lt;div style=&quot;background-color:#ffffff;padding:0px 2px 0px 2px;&quot;&gt;&lt;div style=&quot;&quot;&gt;&lt;div style=&quot;padding: 0px 2px;&quot;&gt;&lt;div style=&quot;font-family: Consolas; font-size: 10pt; white-space: pre;&quot;&gt;&lt;p style=&quot;margin:0;&quot;&gt; +---+---+---+---+---+---+---+---+&lt;/p&gt;&lt;p style=&quot;margin:0;&quot;&gt;| Q | . | . | . | . | . | . | . |&lt;/p&gt;&lt;p style=&quot;margin:0;&quot;&gt;+---+---+---+---+---+---+---+---+&lt;/p&gt;&lt;p style=&quot;margin:0;&quot;&gt;| . | . | . | . | Q | . | . | . |&lt;/p&gt;&lt;p style=&quot;margin:0;&quot;&gt;+---+---+---+---+---+---+---+---+&lt;/p&gt;&lt;p style=&quot;margin:0;&quot;&gt;| . | . | . | . | . | . | . | Q |&lt;/p&gt;&lt;p style=&quot;margin:0;&quot;&gt;+---+---+---+---+---+---+---+---+&lt;/p&gt;&lt;p style=&quot;margin:0;&quot;&gt;| . | . | . | . | . | . | . | . |&lt;/p&gt;&lt;p style=&quot;margin:0;&quot;&gt;+---+---+---+---+---+---+---+---+&lt;/p&gt;&lt;p style=&quot;margin:0;&quot;&gt;| . | . | . | . | . | . | . | . |&lt;/p&gt;&lt;p style=&quot;margin:0;&quot;&gt;+---+---+---+---+---+---+---+---+&lt;/p&gt;&lt;p style=&quot;margin:0;&quot;&gt;| . | . | . | . | . | . | . | . |&lt;/p&gt;&lt;p style=&quot;margin:0;&quot;&gt;+---+---+---+---+---+---+---+---+&lt;/p&gt;&lt;p style=&quot;margin:0;&quot;&gt;| . | . | . | . | . | . | . | . |&lt;/p&gt;&lt;p style=&quot;margin:0;&quot;&gt;+---+---+---+---+---+---+---+---+&lt;/p&gt;&lt;p style=&quot;margin:0;&quot;&gt;| . | . | . | . | . | . | . | . |&lt;/p&gt;&lt;p style=&quot;margin:0;&quot;&gt;+---+---+---+---+---+---+---+---+&lt;/p&gt;&lt;/div&gt;&lt;/div&gt;&lt;/div&gt;&lt;/div&gt;" style="rounded=1;whiteSpace=wrap;html=1;fillColor=#d5e8d4;strokeColor=#82b366;gradientColor=#97d077;" parent="1" vertex="1">
          <mxGeometry x="-1330" y="1840" width="300" height="300" as="geometry" />
        </mxCell>
        <mxCell id="v4ZDc3-o21Q33p204Lgi-81" style="edgeStyle=orthogonalEdgeStyle;rounded=0;orthogonalLoop=1;jettySize=auto;html=1;exitX=0.5;exitY=1;exitDx=0;exitDy=0;entryX=0.5;entryY=0;entryDx=0;entryDy=0;fillColor=#d5e8d4;gradientColor=#97d077;strokeColor=#82b366;" parent="1" source="v4ZDc3-o21Q33p204Lgi-74" target="v4ZDc3-o21Q33p204Lgi-79" edge="1">
          <mxGeometry relative="1" as="geometry" />
        </mxCell>
        <mxCell id="v4ZDc3-o21Q33p204Lgi-148" style="edgeStyle=orthogonalEdgeStyle;rounded=0;orthogonalLoop=1;jettySize=auto;html=1;exitX=0.5;exitY=1;exitDx=0;exitDy=0;" parent="1" source="v4ZDc3-o21Q33p204Lgi-74" target="v4ZDc3-o21Q33p204Lgi-147" edge="1">
          <mxGeometry relative="1" as="geometry" />
        </mxCell>
        <mxCell id="v4ZDc3-o21Q33p204Lgi-150" style="edgeStyle=orthogonalEdgeStyle;rounded=0;orthogonalLoop=1;jettySize=auto;html=1;exitX=0.5;exitY=1;exitDx=0;exitDy=0;" parent="1" source="v4ZDc3-o21Q33p204Lgi-74" target="v4ZDc3-o21Q33p204Lgi-146" edge="1">
          <mxGeometry relative="1" as="geometry" />
        </mxCell>
        <mxCell id="v4ZDc3-o21Q33p204Lgi-151" style="edgeStyle=orthogonalEdgeStyle;rounded=0;orthogonalLoop=1;jettySize=auto;html=1;exitX=0.5;exitY=1;exitDx=0;exitDy=0;entryX=0.5;entryY=0;entryDx=0;entryDy=0;" parent="1" source="v4ZDc3-o21Q33p204Lgi-74" target="v4ZDc3-o21Q33p204Lgi-145" edge="1">
          <mxGeometry relative="1" as="geometry" />
        </mxCell>
        <mxCell id="v4ZDc3-o21Q33p204Lgi-152" style="edgeStyle=orthogonalEdgeStyle;rounded=0;orthogonalLoop=1;jettySize=auto;html=1;exitX=0.5;exitY=1;exitDx=0;exitDy=0;" parent="1" source="v4ZDc3-o21Q33p204Lgi-74" target="v4ZDc3-o21Q33p204Lgi-141" edge="1">
          <mxGeometry relative="1" as="geometry">
            <Array as="points">
              <mxPoint x="-710" y="3880" />
              <mxPoint x="-2460" y="3880" />
            </Array>
          </mxGeometry>
        </mxCell>
        <mxCell id="v4ZDc3-o21Q33p204Lgi-153" style="edgeStyle=orthogonalEdgeStyle;rounded=0;orthogonalLoop=1;jettySize=auto;html=1;exitX=0.5;exitY=1;exitDx=0;exitDy=0;" parent="1" source="v4ZDc3-o21Q33p204Lgi-74" target="v4ZDc3-o21Q33p204Lgi-144" edge="1">
          <mxGeometry relative="1" as="geometry">
            <Array as="points">
              <mxPoint x="-710" y="3880" />
              <mxPoint x="-1180" y="3880" />
            </Array>
          </mxGeometry>
        </mxCell>
        <mxCell id="v4ZDc3-o21Q33p204Lgi-154" style="edgeStyle=orthogonalEdgeStyle;rounded=0;orthogonalLoop=1;jettySize=auto;html=1;exitX=0.5;exitY=1;exitDx=0;exitDy=0;entryX=0.5;entryY=0;entryDx=0;entryDy=0;" parent="1" source="v4ZDc3-o21Q33p204Lgi-74" target="v4ZDc3-o21Q33p204Lgi-143" edge="1">
          <mxGeometry relative="1" as="geometry">
            <Array as="points">
              <mxPoint x="-710" y="3880" />
              <mxPoint x="-1650" y="3880" />
            </Array>
          </mxGeometry>
        </mxCell>
        <mxCell id="v4ZDc3-o21Q33p204Lgi-155" style="edgeStyle=orthogonalEdgeStyle;rounded=0;orthogonalLoop=1;jettySize=auto;html=1;exitX=0.5;exitY=1;exitDx=0;exitDy=0;" parent="1" source="v4ZDc3-o21Q33p204Lgi-74" target="v4ZDc3-o21Q33p204Lgi-142" edge="1">
          <mxGeometry relative="1" as="geometry">
            <Array as="points">
              <mxPoint x="-710" y="3880" />
              <mxPoint x="-2060" y="3880" />
            </Array>
          </mxGeometry>
        </mxCell>
        <mxCell id="v4ZDc3-o21Q33p204Lgi-74" value="&lt;div style=&quot;background-color:#ffffff;padding:0px 2px 0px 2px;&quot;&gt;&lt;div style=&quot;&quot;&gt;&lt;div style=&quot;padding: 0px 2px;&quot;&gt;&lt;div style=&quot;font-family: Consolas; font-size: 10pt; white-space: pre;&quot;&gt;&lt;p style=&quot;margin:0;&quot;&gt;+---+---+---+---+---+---+---+---+&lt;/p&gt;&lt;p style=&quot;margin:0;&quot;&gt;| Q | . | . | . | . | . | . | . |&lt;/p&gt;&lt;p style=&quot;margin:0;&quot;&gt;+---+---+---+---+---+---+---+---+&lt;/p&gt;&lt;p style=&quot;margin:0;&quot;&gt;| . | . | . | . | Q | . | . | . |&lt;/p&gt;&lt;p style=&quot;margin:0;&quot;&gt;+---+---+---+---+---+---+---+---+&lt;/p&gt;&lt;p style=&quot;margin:0;&quot;&gt;| . | . | . | . | . | . | . | Q |&lt;/p&gt;&lt;p style=&quot;margin:0;&quot;&gt;+---+---+---+---+---+---+---+---+&lt;/p&gt;&lt;p style=&quot;margin:0;&quot;&gt;| . | . | . | . | . | Q | . | . |&lt;/p&gt;&lt;p style=&quot;margin:0;&quot;&gt;+---+---+---+---+---+---+---+---+&lt;/p&gt;&lt;p style=&quot;margin:0;&quot;&gt;| . | . | Q | . | . | . | . | . |&lt;/p&gt;&lt;p style=&quot;margin:0;&quot;&gt;+---+---+---+---+---+---+---+---+&lt;/p&gt;&lt;p style=&quot;margin:0;&quot;&gt;| . | . | . | . | . | . | Q | . |&lt;/p&gt;&lt;p style=&quot;margin:0;&quot;&gt;+---+---+---+---+---+---+---+---+&lt;/p&gt;&lt;p style=&quot;margin:0;&quot;&gt;| . | . | . | . | . | . | . | . |&lt;/p&gt;&lt;p style=&quot;margin:0;&quot;&gt;+---+---+---+---+---+---+---+---+&lt;/p&gt;&lt;p style=&quot;margin:0;&quot;&gt;| . | . | . | . | . | . | . | . |&lt;/p&gt;&lt;p style=&quot;margin:0;&quot;&gt;+---+---+---+---+---+---+---+---+&lt;/p&gt;&lt;/div&gt;&lt;/div&gt;&lt;/div&gt;&lt;/div&gt;" style="rounded=1;whiteSpace=wrap;html=1;fillColor=#d5e8d4;strokeColor=#82b366;gradientColor=#97d077;" parent="1" vertex="1">
          <mxGeometry x="-860" y="3500" width="300" height="300" as="geometry" />
        </mxCell>
        <mxCell id="v4ZDc3-o21Q33p204Lgi-78" style="edgeStyle=orthogonalEdgeStyle;rounded=0;orthogonalLoop=1;jettySize=auto;html=1;exitX=0.5;exitY=1;exitDx=0;exitDy=0;entryX=0.5;entryY=0;entryDx=0;entryDy=0;fillColor=#d5e8d4;gradientColor=#97d077;strokeColor=#82b366;" parent="1" source="v4ZDc3-o21Q33p204Lgi-75" target="v4ZDc3-o21Q33p204Lgi-74" edge="1">
          <mxGeometry relative="1" as="geometry">
            <mxPoint x="-520" y="2950" as="targetPoint" />
          </mxGeometry>
        </mxCell>
        <mxCell id="v4ZDc3-o21Q33p204Lgi-134" style="edgeStyle=orthogonalEdgeStyle;rounded=0;orthogonalLoop=1;jettySize=auto;html=1;exitX=0.5;exitY=1;exitDx=0;exitDy=0;" parent="1" source="v4ZDc3-o21Q33p204Lgi-75" target="v4ZDc3-o21Q33p204Lgi-127" edge="1">
          <mxGeometry relative="1" as="geometry" />
        </mxCell>
        <mxCell id="v4ZDc3-o21Q33p204Lgi-135" style="edgeStyle=orthogonalEdgeStyle;rounded=0;orthogonalLoop=1;jettySize=auto;html=1;exitX=0.5;exitY=1;exitDx=0;exitDy=0;entryX=0.5;entryY=0;entryDx=0;entryDy=0;" parent="1" source="v4ZDc3-o21Q33p204Lgi-75" target="v4ZDc3-o21Q33p204Lgi-128" edge="1">
          <mxGeometry relative="1" as="geometry" />
        </mxCell>
        <mxCell id="v4ZDc3-o21Q33p204Lgi-136" style="edgeStyle=orthogonalEdgeStyle;rounded=0;orthogonalLoop=1;jettySize=auto;html=1;exitX=0.5;exitY=1;exitDx=0;exitDy=0;entryX=0.5;entryY=0;entryDx=0;entryDy=0;" parent="1" source="v4ZDc3-o21Q33p204Lgi-75" target="v4ZDc3-o21Q33p204Lgi-129" edge="1">
          <mxGeometry relative="1" as="geometry" />
        </mxCell>
        <mxCell id="v4ZDc3-o21Q33p204Lgi-137" style="edgeStyle=orthogonalEdgeStyle;rounded=0;orthogonalLoop=1;jettySize=auto;html=1;exitX=0.5;exitY=1;exitDx=0;exitDy=0;" parent="1" source="v4ZDc3-o21Q33p204Lgi-75" target="v4ZDc3-o21Q33p204Lgi-133" edge="1">
          <mxGeometry relative="1" as="geometry" />
        </mxCell>
        <mxCell id="v4ZDc3-o21Q33p204Lgi-138" style="edgeStyle=orthogonalEdgeStyle;rounded=0;orthogonalLoop=1;jettySize=auto;html=1;exitX=0.5;exitY=1;exitDx=0;exitDy=0;entryX=0.5;entryY=0;entryDx=0;entryDy=0;" parent="1" source="v4ZDc3-o21Q33p204Lgi-75" target="v4ZDc3-o21Q33p204Lgi-132" edge="1">
          <mxGeometry relative="1" as="geometry" />
        </mxCell>
        <mxCell id="v4ZDc3-o21Q33p204Lgi-139" style="edgeStyle=orthogonalEdgeStyle;rounded=0;orthogonalLoop=1;jettySize=auto;html=1;exitX=0.5;exitY=1;exitDx=0;exitDy=0;" parent="1" source="v4ZDc3-o21Q33p204Lgi-75" target="v4ZDc3-o21Q33p204Lgi-131" edge="1">
          <mxGeometry relative="1" as="geometry" />
        </mxCell>
        <mxCell id="v4ZDc3-o21Q33p204Lgi-140" style="edgeStyle=orthogonalEdgeStyle;rounded=0;orthogonalLoop=1;jettySize=auto;html=1;exitX=0.5;exitY=1;exitDx=0;exitDy=0;" parent="1" source="v4ZDc3-o21Q33p204Lgi-75" target="v4ZDc3-o21Q33p204Lgi-130" edge="1">
          <mxGeometry relative="1" as="geometry" />
        </mxCell>
        <mxCell id="v4ZDc3-o21Q33p204Lgi-75" value="&lt;div style=&quot;background-color:#ffffff;padding:0px 2px 0px 2px;&quot;&gt;&lt;div style=&quot;&quot;&gt;&lt;div style=&quot;padding: 0px 2px;&quot;&gt;&lt;div style=&quot;font-family: Consolas; font-size: 10pt; white-space: pre;&quot;&gt;&lt;p style=&quot;margin:0;&quot;&gt;+---+---+---+---+---+---+---+---+&lt;/p&gt;&lt;p style=&quot;margin:0;&quot;&gt;| Q | . | . | . | . | . | . | . |&lt;/p&gt;&lt;p style=&quot;margin:0;&quot;&gt;+---+---+---+---+---+---+---+---+&lt;/p&gt;&lt;p style=&quot;margin:0;&quot;&gt;| . | . | . | . | Q | . | . | . |&lt;/p&gt;&lt;p style=&quot;margin:0;&quot;&gt;+---+---+---+---+---+---+---+---+&lt;/p&gt;&lt;p style=&quot;margin:0;&quot;&gt;| . | . | . | . | . | . | . | Q |&lt;/p&gt;&lt;p style=&quot;margin:0;&quot;&gt;+---+---+---+---+---+---+---+---+&lt;/p&gt;&lt;p style=&quot;margin:0;&quot;&gt;| . | . | . | . | . | Q | . | . |&lt;/p&gt;&lt;p style=&quot;margin:0;&quot;&gt;+---+---+---+---+---+---+---+---+&lt;/p&gt;&lt;p style=&quot;margin:0;&quot;&gt;| . | . | Q | . | . | . | . | . |&lt;/p&gt;&lt;p style=&quot;margin:0;&quot;&gt;+---+---+---+---+---+---+---+---+&lt;/p&gt;&lt;p style=&quot;margin:0;&quot;&gt;| . | . | . | . | . | . | . | . |&lt;/p&gt;&lt;p style=&quot;margin:0;&quot;&gt;+---+---+---+---+---+---+---+---+&lt;/p&gt;&lt;p style=&quot;margin:0;&quot;&gt;| . | . | . | . | . | . | . | . |&lt;/p&gt;&lt;p style=&quot;margin:0;&quot;&gt;+---+---+---+---+---+---+---+---+&lt;/p&gt;&lt;p style=&quot;margin:0;&quot;&gt;| . | . | . | . | . | . | . | . |&lt;/p&gt;&lt;p style=&quot;margin:0;&quot;&gt;+---+---+---+---+---+---+---+---+&lt;/p&gt;&lt;/div&gt;&lt;/div&gt;&lt;/div&gt;&lt;/div&gt;" style="rounded=1;whiteSpace=wrap;html=1;fillColor=#d5e8d4;strokeColor=#82b366;gradientColor=#97d077;" parent="1" vertex="1">
          <mxGeometry x="-860" y="3010" width="300" height="300" as="geometry" />
        </mxCell>
        <mxCell id="v4ZDc3-o21Q33p204Lgi-77" style="edgeStyle=orthogonalEdgeStyle;rounded=0;orthogonalLoop=1;jettySize=auto;html=1;exitX=0.5;exitY=1;exitDx=0;exitDy=0;entryX=0.5;entryY=0;entryDx=0;entryDy=0;" parent="1" source="v4ZDc3-o21Q33p204Lgi-76" target="v4ZDc3-o21Q33p204Lgi-75" edge="1">
          <mxGeometry relative="1" as="geometry">
            <mxPoint x="-820" y="2590" as="targetPoint" />
          </mxGeometry>
        </mxCell>
        <mxCell id="v4ZDc3-o21Q33p204Lgi-120" style="edgeStyle=orthogonalEdgeStyle;rounded=0;orthogonalLoop=1;jettySize=auto;html=1;exitX=0.5;exitY=1;exitDx=0;exitDy=0;entryX=0.5;entryY=0;entryDx=0;entryDy=0;" parent="1" source="v4ZDc3-o21Q33p204Lgi-76" target="v4ZDc3-o21Q33p204Lgi-118" edge="1">
          <mxGeometry relative="1" as="geometry" />
        </mxCell>
        <mxCell id="v4ZDc3-o21Q33p204Lgi-121" style="edgeStyle=orthogonalEdgeStyle;rounded=0;orthogonalLoop=1;jettySize=auto;html=1;exitX=0.5;exitY=1;exitDx=0;exitDy=0;entryX=0.5;entryY=0;entryDx=0;entryDy=0;" parent="1" source="v4ZDc3-o21Q33p204Lgi-76" target="v4ZDc3-o21Q33p204Lgi-117" edge="1">
          <mxGeometry relative="1" as="geometry" />
        </mxCell>
        <mxCell id="v4ZDc3-o21Q33p204Lgi-122" style="edgeStyle=orthogonalEdgeStyle;rounded=0;orthogonalLoop=1;jettySize=auto;html=1;exitX=0.5;exitY=1;exitDx=0;exitDy=0;entryX=0.5;entryY=0;entryDx=0;entryDy=0;" parent="1" source="v4ZDc3-o21Q33p204Lgi-76" target="v4ZDc3-o21Q33p204Lgi-116" edge="1">
          <mxGeometry relative="1" as="geometry" />
        </mxCell>
        <mxCell id="v4ZDc3-o21Q33p204Lgi-123" style="edgeStyle=orthogonalEdgeStyle;rounded=0;orthogonalLoop=1;jettySize=auto;html=1;exitX=0.5;exitY=1;exitDx=0;exitDy=0;entryX=0.5;entryY=0;entryDx=0;entryDy=0;" parent="1" source="v4ZDc3-o21Q33p204Lgi-76" target="v4ZDc3-o21Q33p204Lgi-115" edge="1">
          <mxGeometry relative="1" as="geometry" />
        </mxCell>
        <mxCell id="v4ZDc3-o21Q33p204Lgi-124" style="edgeStyle=orthogonalEdgeStyle;rounded=0;orthogonalLoop=1;jettySize=auto;html=1;exitX=0.5;exitY=1;exitDx=0;exitDy=0;entryX=0.5;entryY=0;entryDx=0;entryDy=0;" parent="1" source="v4ZDc3-o21Q33p204Lgi-76" target="v4ZDc3-o21Q33p204Lgi-119" edge="1">
          <mxGeometry relative="1" as="geometry" />
        </mxCell>
        <mxCell id="v4ZDc3-o21Q33p204Lgi-125" style="edgeStyle=orthogonalEdgeStyle;rounded=0;orthogonalLoop=1;jettySize=auto;html=1;exitX=0.5;exitY=1;exitDx=0;exitDy=0;entryX=0.5;entryY=0;entryDx=0;entryDy=0;" parent="1" source="v4ZDc3-o21Q33p204Lgi-76" target="v4ZDc3-o21Q33p204Lgi-114" edge="1">
          <mxGeometry relative="1" as="geometry" />
        </mxCell>
        <mxCell id="v4ZDc3-o21Q33p204Lgi-126" style="edgeStyle=orthogonalEdgeStyle;rounded=0;orthogonalLoop=1;jettySize=auto;html=1;exitX=0.5;exitY=1;exitDx=0;exitDy=0;entryX=0.5;entryY=0;entryDx=0;entryDy=0;" parent="1" source="v4ZDc3-o21Q33p204Lgi-76" target="v4ZDc3-o21Q33p204Lgi-113" edge="1">
          <mxGeometry relative="1" as="geometry" />
        </mxCell>
        <mxCell id="v4ZDc3-o21Q33p204Lgi-76" value="&lt;div style=&quot;background-color:#ffffff;padding:0px 2px 0px 2px;&quot;&gt;&lt;div style=&quot;&quot;&gt;&lt;div style=&quot;padding: 0px 2px;&quot;&gt;&lt;div style=&quot;font-family: Consolas; font-size: 10pt; white-space: pre;&quot;&gt;&lt;p style=&quot;margin:0;&quot;&gt;+---+---+---+---+---+---+---+---+&lt;/p&gt;&lt;p style=&quot;margin:0;&quot;&gt;| Q | . | . | . | . | . | . | . |&lt;/p&gt;&lt;p style=&quot;margin:0;&quot;&gt;+---+---+---+---+---+---+---+---+&lt;/p&gt;&lt;p style=&quot;margin:0;&quot;&gt;| . | . | . | . | Q | . | . | . |&lt;/p&gt;&lt;p style=&quot;margin:0;&quot;&gt;+---+---+---+---+---+---+---+---+&lt;/p&gt;&lt;p style=&quot;margin:0;&quot;&gt;| . | . | . | . | . | . | . | Q |&lt;/p&gt;&lt;p style=&quot;margin:0;&quot;&gt;+---+---+---+---+---+---+---+---+&lt;/p&gt;&lt;p style=&quot;margin:0;&quot;&gt;| . | . | . | . | . | Q | . | . |&lt;/p&gt;&lt;p style=&quot;margin:0;&quot;&gt;+---+---+---+---+---+---+---+---+&lt;/p&gt;&lt;p style=&quot;margin:0;&quot;&gt;| . | . | . | . | . | . | . | . |&lt;/p&gt;&lt;p style=&quot;margin:0;&quot;&gt;+---+---+---+---+---+---+---+---+&lt;/p&gt;&lt;p style=&quot;margin:0;&quot;&gt;| . | . | . | . | . | . | . | . |&lt;/p&gt;&lt;p style=&quot;margin:0;&quot;&gt;+---+---+---+---+---+---+---+---+&lt;/p&gt;&lt;p style=&quot;margin:0;&quot;&gt;| . | . | . | . | . | . | . | . |&lt;/p&gt;&lt;p style=&quot;margin:0;&quot;&gt;+---+---+---+---+---+---+---+---+&lt;/p&gt;&lt;p style=&quot;margin:0;&quot;&gt;| . | . | . | . | . | . | . | . |&lt;/p&gt;&lt;p style=&quot;margin:0;&quot;&gt;+---+---+---+---+---+---+---+---+&lt;/p&gt;&lt;/div&gt;&lt;/div&gt;&lt;/div&gt;&lt;/div&gt;" style="rounded=1;whiteSpace=wrap;html=1;fillColor=#d5e8d4;strokeColor=#82b366;gradientColor=#97d077;" parent="1" vertex="1">
          <mxGeometry x="-1330" y="2370" width="300" height="300" as="geometry" />
        </mxCell>
        <mxCell id="v4ZDc3-o21Q33p204Lgi-84" style="edgeStyle=orthogonalEdgeStyle;rounded=0;orthogonalLoop=1;jettySize=auto;html=1;exitX=0.5;exitY=1;exitDx=0;exitDy=0;" parent="1" source="v4ZDc3-o21Q33p204Lgi-79" target="v4ZDc3-o21Q33p204Lgi-80" edge="1">
          <mxGeometry relative="1" as="geometry">
            <Array as="points">
              <mxPoint x="-660" y="4460" />
              <mxPoint x="-350" y="4460" />
            </Array>
          </mxGeometry>
        </mxCell>
        <mxCell id="v4ZDc3-o21Q33p204Lgi-162" style="edgeStyle=orthogonalEdgeStyle;rounded=0;orthogonalLoop=1;jettySize=auto;html=1;exitX=0.5;exitY=1;exitDx=0;exitDy=0;" parent="1" source="v4ZDc3-o21Q33p204Lgi-79" target="v4ZDc3-o21Q33p204Lgi-158" edge="1">
          <mxGeometry relative="1" as="geometry">
            <Array as="points">
              <mxPoint x="-660" y="4460" />
              <mxPoint x="-780" y="4460" />
            </Array>
          </mxGeometry>
        </mxCell>
        <mxCell id="v4ZDc3-o21Q33p204Lgi-171" style="edgeStyle=orthogonalEdgeStyle;rounded=0;orthogonalLoop=1;jettySize=auto;html=1;exitX=0.5;exitY=1;exitDx=0;exitDy=0;" parent="1" source="v4ZDc3-o21Q33p204Lgi-79" target="v4ZDc3-o21Q33p204Lgi-157" edge="1">
          <mxGeometry relative="1" as="geometry">
            <Array as="points">
              <mxPoint x="-660" y="4460" />
              <mxPoint x="-1210" y="4460" />
            </Array>
          </mxGeometry>
        </mxCell>
        <mxCell id="v4ZDc3-o21Q33p204Lgi-172" style="edgeStyle=orthogonalEdgeStyle;rounded=0;orthogonalLoop=1;jettySize=auto;html=1;exitX=0.5;exitY=1;exitDx=0;exitDy=0;" parent="1" source="v4ZDc3-o21Q33p204Lgi-79" target="v4ZDc3-o21Q33p204Lgi-156" edge="1">
          <mxGeometry relative="1" as="geometry">
            <Array as="points">
              <mxPoint x="-660" y="4460" />
              <mxPoint x="-1670" y="4460" />
            </Array>
          </mxGeometry>
        </mxCell>
        <mxCell id="v4ZDc3-o21Q33p204Lgi-79" value="&lt;div style=&quot;background-color:#ffffff;padding:0px 2px 0px 2px;&quot;&gt;&lt;div style=&quot;&quot;&gt;&lt;div style=&quot;padding: 0px 2px;&quot;&gt;&lt;div style=&quot;font-family: Consolas; font-size: 10pt; white-space: pre;&quot;&gt;&lt;p style=&quot;margin:0;&quot;&gt;+---+---+---+---+---+---+---+---+&lt;/p&gt;&lt;p style=&quot;margin:0;&quot;&gt;| Q | . | . | . | . | . | . | . |&lt;/p&gt;&lt;p style=&quot;margin:0;&quot;&gt;+---+---+---+---+---+---+---+---+&lt;/p&gt;&lt;p style=&quot;margin:0;&quot;&gt;| . | . | . | . | Q | . | . | . |&lt;/p&gt;&lt;p style=&quot;margin:0;&quot;&gt;+---+---+---+---+---+---+---+---+&lt;/p&gt;&lt;p style=&quot;margin:0;&quot;&gt;| . | . | . | . | . | . | . | Q |&lt;/p&gt;&lt;p style=&quot;margin:0;&quot;&gt;+---+---+---+---+---+---+---+---+&lt;/p&gt;&lt;p style=&quot;margin:0;&quot;&gt;| . | . | . | . | . | Q | . | . |&lt;/p&gt;&lt;p style=&quot;margin:0;&quot;&gt;+---+---+---+---+---+---+---+---+&lt;/p&gt;&lt;p style=&quot;margin:0;&quot;&gt;| . | . | Q | . | . | . | . | . |&lt;/p&gt;&lt;p style=&quot;margin:0;&quot;&gt;+---+---+---+---+---+---+---+---+&lt;/p&gt;&lt;p style=&quot;margin:0;&quot;&gt;| . | . | . | . | . | . | Q | . |&lt;/p&gt;&lt;p style=&quot;margin:0;&quot;&gt;+---+---+---+---+---+---+---+---+&lt;/p&gt;&lt;p style=&quot;margin:0;&quot;&gt;| . | Q | . | . | . | . | . | . |&lt;/p&gt;&lt;p style=&quot;margin:0;&quot;&gt;+---+---+---+---+---+---+---+---+&lt;/p&gt;&lt;p style=&quot;margin:0;&quot;&gt;| . | . | . | . | . | . | . | . |&lt;/p&gt;&lt;p style=&quot;margin:0;&quot;&gt;+---+---+---+---+---+---+---+---+&lt;/p&gt;&lt;/div&gt;&lt;/div&gt;&lt;/div&gt;&lt;/div&gt;" style="rounded=1;whiteSpace=wrap;html=1;fillColor=#d5e8d4;strokeColor=#82b366;gradientColor=#97d077;" parent="1" vertex="1">
          <mxGeometry x="-810" y="3950" width="300" height="300" as="geometry" />
        </mxCell>
        <mxCell id="v4ZDc3-o21Q33p204Lgi-80" value="&lt;div style=&quot;background-color:#ffffff;padding:0px 2px 0px 2px;&quot;&gt;&lt;div style=&quot;&quot;&gt;&lt;div style=&quot;padding: 0px 2px;&quot;&gt;&lt;div style=&quot;font-family: Consolas; font-size: 10pt; white-space: pre;&quot;&gt;&lt;p style=&quot;margin:0;&quot;&gt;+---+---+---+---+---+---+---+---+&lt;/p&gt;&lt;p style=&quot;margin:0;&quot;&gt;| Q | . | . | . | . | . | . | . |&lt;/p&gt;&lt;p style=&quot;margin:0;&quot;&gt;+---+---+---+---+---+---+---+---+&lt;/p&gt;&lt;p style=&quot;margin:0;&quot;&gt;| . | . | . | . | Q | . | . | . |&lt;/p&gt;&lt;p style=&quot;margin:0;&quot;&gt;+---+---+---+---+---+---+---+---+&lt;/p&gt;&lt;p style=&quot;margin:0;&quot;&gt;| . | . | . | . | . | . | . | Q |&lt;/p&gt;&lt;p style=&quot;margin:0;&quot;&gt;+---+---+---+---+---+---+---+---+&lt;/p&gt;&lt;p style=&quot;margin:0;&quot;&gt;| . | . | . | . | . | Q | . | . |&lt;/p&gt;&lt;p style=&quot;margin:0;&quot;&gt;+---+---+---+---+---+---+---+---+&lt;/p&gt;&lt;p style=&quot;margin:0;&quot;&gt;| . | . | Q | . | . | . | . | . |&lt;/p&gt;&lt;p style=&quot;margin:0;&quot;&gt;+---+---+---+---+---+---+---+---+&lt;/p&gt;&lt;p style=&quot;margin:0;&quot;&gt;| . | . | . | . | . | . | Q | . |&lt;/p&gt;&lt;p style=&quot;margin:0;&quot;&gt;+---+---+---+---+---+---+---+---+&lt;/p&gt;&lt;p style=&quot;margin:0;&quot;&gt;| . | Q | . | . | . | . | . | . |&lt;/p&gt;&lt;p style=&quot;margin:0;&quot;&gt;+---+---+---+---+---+---+---+---+&lt;/p&gt;&lt;p style=&quot;margin:0;&quot;&gt;| . | . | . | Q | . | . | . | . |&lt;/p&gt;&lt;p style=&quot;margin:0;&quot;&gt;+---+---+---+---+---+---+---+---+&lt;/p&gt;&lt;/div&gt;&lt;/div&gt;&lt;/div&gt;&lt;/div&gt;" style="rounded=1;whiteSpace=wrap;html=1;fillColor=#ffcd28;strokeColor=#d79b00;gradientColor=#ffa500;" parent="1" vertex="1">
          <mxGeometry x="-500" y="4640" width="300" height="300" as="geometry" />
        </mxCell>
        <mxCell id="v4ZDc3-o21Q33p204Lgi-85" value="&lt;div style=&quot;background-color:#ffffff;padding:0px 2px 0px 2px;&quot;&gt;&lt;div style=&quot;&quot;&gt;&lt;p style=&quot;margin: 0px;&quot;&gt;&lt;font face=&quot;Consolas&quot;&gt;&lt;span style=&quot;font-size: 13.3333px; white-space: pre;&quot;&gt;+---+---+---+---+---+---+---+---+&lt;br&gt;| Q | . | . | . | . | . | . | . |&lt;br&gt;+---+---+---+---+---+---+---+---+&lt;br&gt;| . | . | . | . | Q | . | . | . |&lt;br&gt;+---+---+---+---+---+---+---+---+&lt;br&gt;| . | . | . | . | . | . | Q | . |&lt;br&gt;+---+---+---+---+---+---+---+---+&lt;br&gt;| . | . | . | . | . | . | . | . |&lt;br&gt;+---+---+---+---+---+---+---+---+&lt;br&gt;| . | . | . | . | . | . | . | . |&lt;br&gt;+---+---+---+---+---+---+---+---+&lt;br&gt;| . | . | . | . | . | . | . | . |&lt;br&gt;+---+---+---+---+---+---+---+---+&lt;br&gt;| . | . | . | . | . | . | . | . |&lt;br&gt;+---+---+---+---+---+---+---+---+&lt;br&gt;| . | . | . | . | . | . | . | . |&lt;br&gt;+---+---+---+---+---+---+---+---+&lt;br&gt;&lt;/span&gt;&lt;/font&gt;&lt;/p&gt;&lt;div style=&quot;font-family: Consolas; font-size: 10pt; white-space: pre;&quot;&gt;&lt;br&gt;&lt;/div&gt;&lt;/div&gt;&lt;/div&gt;" style="rounded=1;whiteSpace=wrap;html=1;fillColor=#f8cecc;strokeColor=#b85450;" parent="1" vertex="1">
          <mxGeometry x="600" y="1800" width="300" height="300" as="geometry" />
        </mxCell>
        <mxCell id="v4ZDc3-o21Q33p204Lgi-86" value="&lt;div style=&quot;background-color:#ffffff;padding:0px 2px 0px 2px;&quot;&gt;&lt;div style=&quot;&quot;&gt;&lt;p style=&quot;margin: 0px;&quot;&gt;&lt;font face=&quot;Consolas&quot;&gt;&lt;span style=&quot;font-size: 13.3333px; white-space: pre;&quot;&gt;+---+---+---+---+---+---+---+---+&lt;br&gt;| Q | . | . | . | . | . | . | . |&lt;br&gt;+---+---+---+---+---+---+---+---+&lt;br&gt;| . | . | . | . | Q | . | . | . |&lt;br&gt;+---+---+---+---+---+---+---+---+&lt;br&gt;| Q | . | . | . | . | . | . | . |&lt;br&gt;+---+---+---+---+---+---+---+---+&lt;br&gt;| . | . | . | . | . | . | . | . |&lt;br&gt;+---+---+---+---+---+---+---+---+&lt;br&gt;| . | . | . | . | . | . | . | . |&lt;br&gt;+---+---+---+---+---+---+---+---+&lt;br&gt;| . | . | . | . | . | . | . | . |&lt;br&gt;+---+---+---+---+---+---+---+---+&lt;br&gt;| . | . | . | . | . | . | . | . |&lt;br&gt;+---+---+---+---+---+---+---+---+&lt;br&gt;| . | . | . | . | . | . | . | . |&lt;br&gt;+---+---+---+---+---+---+---+---+&lt;br&gt;&lt;/span&gt;&lt;/font&gt;&lt;/p&gt;&lt;div style=&quot;font-family: Consolas; font-size: 10pt; white-space: pre;&quot;&gt;&lt;br&gt;&lt;/div&gt;&lt;/div&gt;&lt;/div&gt;" style="rounded=1;whiteSpace=wrap;html=1;fillColor=#f8cecc;strokeColor=#b85450;" parent="1" vertex="1">
          <mxGeometry x="-2760" y="1850" width="300" height="300" as="geometry" />
        </mxCell>
        <mxCell id="v4ZDc3-o21Q33p204Lgi-87" value="&lt;div style=&quot;background-color:#ffffff;padding:0px 2px 0px 2px;&quot;&gt;&lt;div style=&quot;&quot;&gt;&lt;p style=&quot;margin: 0px;&quot;&gt;&lt;font face=&quot;Consolas&quot;&gt;&lt;span style=&quot;font-size: 13.3333px; white-space: pre;&quot;&gt;+---+---+---+---+---+---+---+---+&lt;br&gt;| Q | . | . | . | . | . | . | . |&lt;br&gt;+---+---+---+---+---+---+---+---+&lt;br&gt;| . | . | . | . | Q | . | . | . |&lt;br&gt;+---+---+---+---+---+---+---+---+&lt;br&gt;| . | Q | . | . | . | . | . | . |&lt;br&gt;+---+---+---+---+---+---+---+---+&lt;br&gt;| . | . | . | . | . | . | . | . |&lt;br&gt;+---+---+---+---+---+---+---+---+&lt;br&gt;| . | . | . | . | . | . | . | . |&lt;br&gt;+---+---+---+---+---+---+---+---+&lt;br&gt;| . | . | . | . | . | . | . | . |&lt;br&gt;+---+---+---+---+---+---+---+---+&lt;br&gt;| . | . | . | . | . | . | . | . |&lt;br&gt;+---+---+---+---+---+---+---+---+&lt;br&gt;| . | . | . | . | . | . | . | . |&lt;br&gt;+---+---+---+---+---+---+---+---+&lt;br&gt;&lt;/span&gt;&lt;/font&gt;&lt;/p&gt;&lt;div style=&quot;font-family: Consolas; font-size: 10pt; white-space: pre;&quot;&gt;&lt;br&gt;&lt;/div&gt;&lt;/div&gt;&lt;/div&gt;" style="rounded=1;whiteSpace=wrap;html=1;fillColor=#f8cecc;strokeColor=#b85450;" parent="1" vertex="1">
          <mxGeometry x="-2310" y="1850" width="300" height="300" as="geometry" />
        </mxCell>
        <mxCell id="v4ZDc3-o21Q33p204Lgi-88" value="&lt;div style=&quot;background-color:#ffffff;padding:0px 2px 0px 2px;&quot;&gt;&lt;div style=&quot;&quot;&gt;&lt;p style=&quot;margin: 0px;&quot;&gt;&lt;font face=&quot;Consolas&quot;&gt;&lt;span style=&quot;font-size: 13.3333px; white-space: pre;&quot;&gt;+---+---+---+---+---+---+---+---+&lt;br&gt;| Q | . | . | . | . | . | . | . |&lt;br&gt;+---+---+---+---+---+---+---+---+&lt;br&gt;| . | . | . | . | Q | . | . | . |&lt;br&gt;+---+---+---+---+---+---+---+---+&lt;br&gt;| . | . | Q | . | . | . | . | . |&lt;br&gt;+---+---+---+---+---+---+---+---+&lt;br&gt;| . | . | . | . | . | . | . | . |&lt;br&gt;+---+---+---+---+---+---+---+---+&lt;br&gt;| . | . | . | . | . | . | . | . |&lt;br&gt;+---+---+---+---+---+---+---+---+&lt;br&gt;| . | . | . | . | . | . | . | . |&lt;br&gt;+---+---+---+---+---+---+---+---+&lt;br&gt;| . | . | . | . | . | . | . | . |&lt;br&gt;+---+---+---+---+---+---+---+---+&lt;br&gt;| . | . | . | . | . | . | . | . |&lt;br&gt;+---+---+---+---+---+---+---+---+&lt;br&gt;&lt;/span&gt;&lt;/font&gt;&lt;/p&gt;&lt;div style=&quot;font-family: Consolas; font-size: 10pt; white-space: pre;&quot;&gt;&lt;br&gt;&lt;/div&gt;&lt;/div&gt;&lt;/div&gt;" style="rounded=1;whiteSpace=wrap;html=1;fillColor=#f8cecc;strokeColor=#b85450;" parent="1" vertex="1">
          <mxGeometry x="-1860" y="1850" width="300" height="300" as="geometry" />
        </mxCell>
        <mxCell id="v4ZDc3-o21Q33p204Lgi-89" value="&lt;div style=&quot;background-color:#ffffff;padding:0px 2px 0px 2px;&quot;&gt;&lt;div style=&quot;&quot;&gt;&lt;p style=&quot;margin: 0px;&quot;&gt;&lt;font face=&quot;Consolas&quot;&gt;&lt;span style=&quot;font-size: 13.3333px; white-space: pre;&quot;&gt;+---+---+---+---+---+---+---+---+&lt;br&gt;| Q | . | . | . | . | . | . | . |&lt;br&gt;+---+---+---+---+---+---+---+---+&lt;br&gt;| . | . | . | . | Q | . | . | . |&lt;br&gt;+---+---+---+---+---+---+---+---+&lt;br&gt;| . | . | . | . | . | Q | . | . |&lt;br&gt;+---+---+---+---+---+---+---+---+&lt;br&gt;| . | . | . | . | . | . | . | . |&lt;br&gt;+---+---+---+---+---+---+---+---+&lt;br&gt;| . | . | . | . | . | . | . | . |&lt;br&gt;+---+---+---+---+---+---+---+---+&lt;br&gt;| . | . | . | . | . | . | . | . |&lt;br&gt;+---+---+---+---+---+---+---+---+&lt;br&gt;| . | . | . | . | . | . | . | . |&lt;br&gt;+---+---+---+---+---+---+---+---+&lt;br&gt;| . | . | . | . | . | . | . | . |&lt;br&gt;+---+---+---+---+---+---+---+---+&lt;br&gt;&lt;/span&gt;&lt;/font&gt;&lt;/p&gt;&lt;div style=&quot;font-family: Consolas; font-size: 10pt; white-space: pre;&quot;&gt;&lt;br&gt;&lt;/div&gt;&lt;/div&gt;&lt;/div&gt;" style="rounded=1;whiteSpace=wrap;html=1;fillColor=#f8cecc;strokeColor=#b85450;" parent="1" vertex="1">
          <mxGeometry x="120" y="1810" width="300" height="300" as="geometry" />
        </mxCell>
        <mxCell id="v4ZDc3-o21Q33p204Lgi-90" value="&lt;div style=&quot;background-color:#ffffff;padding:0px 2px 0px 2px;&quot;&gt;&lt;div style=&quot;&quot;&gt;&lt;p style=&quot;margin: 0px;&quot;&gt;&lt;font face=&quot;Consolas&quot;&gt;&lt;span style=&quot;font-size: 13.3333px; white-space: pre;&quot;&gt;+---+---+---+---+---+---+---+---+&lt;br&gt;| Q | . | . | . | . | . | . | . |&lt;br&gt;+---+---+---+---+---+---+---+---+&lt;br&gt;| . | . | . | . | Q | . | . | . |&lt;br&gt;+---+---+---+---+---+---+---+---+&lt;br&gt;| . | . | . | . | Q | . | . | . |&lt;br&gt;+---+---+---+---+---+---+---+---+&lt;br&gt;| . | . | . | . | . | . | . | . |&lt;br&gt;+---+---+---+---+---+---+---+---+&lt;br&gt;| . | . | . | . | . | . | . | . |&lt;br&gt;+---+---+---+---+---+---+---+---+&lt;br&gt;| . | . | . | . | . | . | . | . |&lt;br&gt;+---+---+---+---+---+---+---+---+&lt;br&gt;| . | . | . | . | . | . | . | . |&lt;br&gt;+---+---+---+---+---+---+---+---+&lt;br&gt;| . | . | . | . | . | . | . | . |&lt;br&gt;+---+---+---+---+---+---+---+---+&lt;br&gt;&lt;/span&gt;&lt;/font&gt;&lt;/p&gt;&lt;div style=&quot;font-family: Consolas; font-size: 10pt; white-space: pre;&quot;&gt;&lt;br&gt;&lt;/div&gt;&lt;/div&gt;&lt;/div&gt;" style="rounded=1;whiteSpace=wrap;html=1;fillColor=#f8cecc;strokeColor=#b85450;" parent="1" vertex="1">
          <mxGeometry x="-250" y="1820" width="300" height="300" as="geometry" />
        </mxCell>
        <mxCell id="v4ZDc3-o21Q33p204Lgi-91" value="&lt;div style=&quot;background-color:#ffffff;padding:0px 2px 0px 2px;&quot;&gt;&lt;div style=&quot;&quot;&gt;&lt;p style=&quot;margin: 0px;&quot;&gt;&lt;font face=&quot;Consolas&quot;&gt;&lt;span style=&quot;font-size: 13.3333px; white-space: pre;&quot;&gt;+---+---+---+---+---+---+---+---+&lt;br&gt;| Q | . | . | . | . | . | . | . |&lt;br&gt;+---+---+---+---+---+---+---+---+&lt;br&gt;| . | . | . | . | Q | . | . | . |&lt;br&gt;+---+---+---+---+---+---+---+---+&lt;br&gt;| . | . | . | Q | . | . | . | . |&lt;br&gt;+---+---+---+---+---+---+---+---+&lt;br&gt;| . | . | . | . | . | . | . | . |&lt;br&gt;+---+---+---+---+---+---+---+---+&lt;br&gt;| . | . | . | . | . | . | . | . |&lt;br&gt;+---+---+---+---+---+---+---+---+&lt;br&gt;| . | . | . | . | . | . | . | . |&lt;br&gt;+---+---+---+---+---+---+---+---+&lt;br&gt;| . | . | . | . | . | . | . | . |&lt;br&gt;+---+---+---+---+---+---+---+---+&lt;br&gt;| . | . | . | . | . | . | . | . |&lt;br&gt;+---+---+---+---+---+---+---+---+&lt;br&gt;&lt;/span&gt;&lt;/font&gt;&lt;/p&gt;&lt;div style=&quot;font-family: Consolas; font-size: 10pt; white-space: pre;&quot;&gt;&lt;br&gt;&lt;/div&gt;&lt;/div&gt;&lt;/div&gt;" style="rounded=1;whiteSpace=wrap;html=1;fillColor=#f8cecc;strokeColor=#b85450;" parent="1" vertex="1">
          <mxGeometry x="-800" y="1830" width="300" height="300" as="geometry" />
        </mxCell>
        <mxCell id="v4ZDc3-o21Q33p204Lgi-99" value="&lt;div style=&quot;background-color:#ffffff;padding:0px 2px 0px 2px;&quot;&gt;&lt;div style=&quot;&quot;&gt;&lt;div style=&quot;padding: 0px 2px;&quot;&gt;&lt;div style=&quot;font-family: Consolas; font-size: 10pt; white-space: pre;&quot;&gt;&lt;p style=&quot;margin:0;&quot;&gt; +---+---+---+---+---+---+---+---+&lt;/p&gt;&lt;p style=&quot;margin:0;&quot;&gt;| Q | . | . | . | . | . | . | . |&lt;/p&gt;&lt;p style=&quot;margin:0;&quot;&gt;+---+---+---+---+---+---+---+---+&lt;/p&gt;&lt;p style=&quot;margin:0;&quot;&gt;| . | . | . | . | Q | . | . | . |&lt;/p&gt;&lt;p style=&quot;margin:0;&quot;&gt;+---+---+---+---+---+---+---+---+&lt;/p&gt;&lt;p style=&quot;margin:0;&quot;&gt;| . | . | . | . | . | . | . | Q |&lt;/p&gt;&lt;p style=&quot;margin:0;&quot;&gt;+---+---+---+---+---+---+---+---+&lt;/p&gt;&lt;p style=&quot;margin:0;&quot;&gt;| Q | . | . | . | . | . | . | . |&lt;/p&gt;&lt;p style=&quot;margin:0;&quot;&gt;+---+---+---+---+---+---+---+---+&lt;/p&gt;&lt;p style=&quot;margin:0;&quot;&gt;| . | . | . | . | . | . | . | . |&lt;/p&gt;&lt;p style=&quot;margin:0;&quot;&gt;+---+---+---+---+---+---+---+---+&lt;/p&gt;&lt;p style=&quot;margin:0;&quot;&gt;| . | . | . | . | . | . | . | . |&lt;/p&gt;&lt;p style=&quot;margin:0;&quot;&gt;+---+---+---+---+---+---+---+---+&lt;/p&gt;&lt;p style=&quot;margin:0;&quot;&gt;| . | . | . | . | . | . | . | . |&lt;/p&gt;&lt;p style=&quot;margin:0;&quot;&gt;+---+---+---+---+---+---+---+---+&lt;/p&gt;&lt;p style=&quot;margin:0;&quot;&gt;| . | . | . | . | . | . | . | . |&lt;/p&gt;&lt;p style=&quot;margin:0;&quot;&gt;+---+---+---+---+---+---+---+---+&lt;/p&gt;&lt;/div&gt;&lt;/div&gt;&lt;/div&gt;&lt;/div&gt;" style="rounded=1;whiteSpace=wrap;html=1;fillColor=#f8cecc;strokeColor=#b85450;" parent="1" vertex="1">
          <mxGeometry x="-3125" y="2370" width="300" height="300" as="geometry" />
        </mxCell>
        <mxCell id="v4ZDc3-o21Q33p204Lgi-100" value="&lt;div style=&quot;background-color:#ffffff;padding:0px 2px 0px 2px;&quot;&gt;&lt;div style=&quot;&quot;&gt;&lt;div style=&quot;padding: 0px 2px;&quot;&gt;&lt;div style=&quot;font-family: Consolas; font-size: 10pt; white-space: pre;&quot;&gt;&lt;p style=&quot;margin:0;&quot;&gt; +---+---+---+---+---+---+---+---+&lt;/p&gt;&lt;p style=&quot;margin:0;&quot;&gt;| Q | . | . | . | . | . | . | . |&lt;/p&gt;&lt;p style=&quot;margin:0;&quot;&gt;+---+---+---+---+---+---+---+---+&lt;/p&gt;&lt;p style=&quot;margin:0;&quot;&gt;| . | . | . | . | Q | . | . | . |&lt;/p&gt;&lt;p style=&quot;margin:0;&quot;&gt;+---+---+---+---+---+---+---+---+&lt;/p&gt;&lt;p style=&quot;margin:0;&quot;&gt;| . | . | . | . | . | . | . | Q |&lt;/p&gt;&lt;p style=&quot;margin:0;&quot;&gt;+---+---+---+---+---+---+---+---+&lt;/p&gt;&lt;p style=&quot;margin:0;&quot;&gt;| . | Q | . | . | . | . | . | . |&lt;/p&gt;&lt;p style=&quot;margin:0;&quot;&gt;+---+---+---+---+---+---+---+---+&lt;/p&gt;&lt;p style=&quot;margin:0;&quot;&gt;| . | . | . | . | . | . | . | . |&lt;/p&gt;&lt;p style=&quot;margin:0;&quot;&gt;+---+---+---+---+---+---+---+---+&lt;/p&gt;&lt;p style=&quot;margin:0;&quot;&gt;| . | . | . | . | . | . | . | . |&lt;/p&gt;&lt;p style=&quot;margin:0;&quot;&gt;+---+---+---+---+---+---+---+---+&lt;/p&gt;&lt;p style=&quot;margin:0;&quot;&gt;| . | . | . | . | . | . | . | . |&lt;/p&gt;&lt;p style=&quot;margin:0;&quot;&gt;+---+---+---+---+---+---+---+---+&lt;/p&gt;&lt;p style=&quot;margin:0;&quot;&gt;| . | . | . | . | . | . | . | . |&lt;/p&gt;&lt;p style=&quot;margin:0;&quot;&gt;+---+---+---+---+---+---+---+---+&lt;/p&gt;&lt;/div&gt;&lt;/div&gt;&lt;/div&gt;&lt;/div&gt;" style="rounded=1;whiteSpace=wrap;html=1;fillColor=#f8cecc;strokeColor=#b85450;" parent="1" vertex="1">
          <mxGeometry x="-2680" y="2370" width="300" height="300" as="geometry" />
        </mxCell>
        <mxCell id="v4ZDc3-o21Q33p204Lgi-101" value="&lt;div style=&quot;background-color:#ffffff;padding:0px 2px 0px 2px;&quot;&gt;&lt;div style=&quot;&quot;&gt;&lt;div style=&quot;padding: 0px 2px;&quot;&gt;&lt;div style=&quot;font-family: Consolas; font-size: 10pt; white-space: pre;&quot;&gt;&lt;p style=&quot;margin:0;&quot;&gt; +---+---+---+---+---+---+---+---+&lt;/p&gt;&lt;p style=&quot;margin:0;&quot;&gt;| Q | . | . | . | . | . | . | . |&lt;/p&gt;&lt;p style=&quot;margin:0;&quot;&gt;+---+---+---+---+---+---+---+---+&lt;/p&gt;&lt;p style=&quot;margin:0;&quot;&gt;| . | . | . | . | Q | . | . | . |&lt;/p&gt;&lt;p style=&quot;margin:0;&quot;&gt;+---+---+---+---+---+---+---+---+&lt;/p&gt;&lt;p style=&quot;margin:0;&quot;&gt;| . | . | . | . | . | . | . | Q |&lt;/p&gt;&lt;p style=&quot;margin:0;&quot;&gt;+---+---+---+---+---+---+---+---+&lt;/p&gt;&lt;p style=&quot;margin:0;&quot;&gt;| . | . | Q | . | . | . | . | . |&lt;/p&gt;&lt;p style=&quot;margin:0;&quot;&gt;+---+---+---+---+---+---+---+---+&lt;/p&gt;&lt;p style=&quot;margin:0;&quot;&gt;| . | . | . | . | . | . | . | . |&lt;/p&gt;&lt;p style=&quot;margin:0;&quot;&gt;+---+---+---+---+---+---+---+---+&lt;/p&gt;&lt;p style=&quot;margin:0;&quot;&gt;| . | . | . | . | . | . | . | . |&lt;/p&gt;&lt;p style=&quot;margin:0;&quot;&gt;+---+---+---+---+---+---+---+---+&lt;/p&gt;&lt;p style=&quot;margin:0;&quot;&gt;| . | . | . | . | . | . | . | . |&lt;/p&gt;&lt;p style=&quot;margin:0;&quot;&gt;+---+---+---+---+---+---+---+---+&lt;/p&gt;&lt;p style=&quot;margin:0;&quot;&gt;| . | . | . | . | . | . | . | . |&lt;/p&gt;&lt;p style=&quot;margin:0;&quot;&gt;+---+---+---+---+---+---+---+---+&lt;/p&gt;&lt;/div&gt;&lt;/div&gt;&lt;/div&gt;&lt;/div&gt;" style="rounded=1;whiteSpace=wrap;html=1;fillColor=#f8cecc;strokeColor=#b85450;" parent="1" vertex="1">
          <mxGeometry x="-2200" y="2370" width="300" height="300" as="geometry" />
        </mxCell>
        <mxCell id="v4ZDc3-o21Q33p204Lgi-102" value="&lt;div style=&quot;background-color:#ffffff;padding:0px 2px 0px 2px;&quot;&gt;&lt;div style=&quot;&quot;&gt;&lt;div style=&quot;padding: 0px 2px;&quot;&gt;&lt;div style=&quot;font-family: Consolas; font-size: 10pt; white-space: pre;&quot;&gt;&lt;p style=&quot;margin:0;&quot;&gt; +---+---+---+---+---+---+---+---+&lt;/p&gt;&lt;p style=&quot;margin:0;&quot;&gt;| Q | . | . | . | . | . | . | . |&lt;/p&gt;&lt;p style=&quot;margin:0;&quot;&gt;+---+---+---+---+---+---+---+---+&lt;/p&gt;&lt;p style=&quot;margin:0;&quot;&gt;| . | . | . | . | Q | . | . | . |&lt;/p&gt;&lt;p style=&quot;margin:0;&quot;&gt;+---+---+---+---+---+---+---+---+&lt;/p&gt;&lt;p style=&quot;margin:0;&quot;&gt;| . | . | . | . | . | . | . | Q |&lt;/p&gt;&lt;p style=&quot;margin:0;&quot;&gt;+---+---+---+---+---+---+---+---+&lt;/p&gt;&lt;p style=&quot;margin:0;&quot;&gt;| . | . | . | Q | . | . | . | . |&lt;/p&gt;&lt;p style=&quot;margin:0;&quot;&gt;+---+---+---+---+---+---+---+---+&lt;/p&gt;&lt;p style=&quot;margin:0;&quot;&gt;| . | . | . | . | . | . | . | . |&lt;/p&gt;&lt;p style=&quot;margin:0;&quot;&gt;+---+---+---+---+---+---+---+---+&lt;/p&gt;&lt;p style=&quot;margin:0;&quot;&gt;| . | . | . | . | . | . | . | . |&lt;/p&gt;&lt;p style=&quot;margin:0;&quot;&gt;+---+---+---+---+---+---+---+---+&lt;/p&gt;&lt;p style=&quot;margin:0;&quot;&gt;| . | . | . | . | . | . | . | . |&lt;/p&gt;&lt;p style=&quot;margin:0;&quot;&gt;+---+---+---+---+---+---+---+---+&lt;/p&gt;&lt;p style=&quot;margin:0;&quot;&gt;| . | . | . | . | . | . | . | . |&lt;/p&gt;&lt;p style=&quot;margin:0;&quot;&gt;+---+---+---+---+---+---+---+---+&lt;/p&gt;&lt;/div&gt;&lt;/div&gt;&lt;/div&gt;&lt;/div&gt;" style="rounded=1;whiteSpace=wrap;html=1;fillColor=#f8cecc;strokeColor=#b85450;" parent="1" vertex="1">
          <mxGeometry x="-1780" y="2370" width="300" height="300" as="geometry" />
        </mxCell>
        <mxCell id="v4ZDc3-o21Q33p204Lgi-103" value="&lt;div style=&quot;background-color:#ffffff;padding:0px 2px 0px 2px;&quot;&gt;&lt;div style=&quot;&quot;&gt;&lt;div style=&quot;padding: 0px 2px;&quot;&gt;&lt;div style=&quot;font-family: Consolas; font-size: 10pt; white-space: pre;&quot;&gt;&lt;p style=&quot;margin:0;&quot;&gt; +---+---+---+---+---+---+---+---+&lt;/p&gt;&lt;p style=&quot;margin:0;&quot;&gt;| Q | . | . | . | . | . | . | . |&lt;/p&gt;&lt;p style=&quot;margin:0;&quot;&gt;+---+---+---+---+---+---+---+---+&lt;/p&gt;&lt;p style=&quot;margin:0;&quot;&gt;| . | . | . | . | Q | . | . | . |&lt;/p&gt;&lt;p style=&quot;margin:0;&quot;&gt;+---+---+---+---+---+---+---+---+&lt;/p&gt;&lt;p style=&quot;margin:0;&quot;&gt;| . | . | . | . | . | . | . | Q |&lt;/p&gt;&lt;p style=&quot;margin:0;&quot;&gt;+---+---+---+---+---+---+---+---+&lt;/p&gt;&lt;p style=&quot;margin:0;&quot;&gt;| . | . | . | . | . | . | . | Q |&lt;/p&gt;&lt;p style=&quot;margin:0;&quot;&gt;+---+---+---+---+---+---+---+---+&lt;/p&gt;&lt;p style=&quot;margin:0;&quot;&gt;| . | . | . | . | . | . | . | . |&lt;/p&gt;&lt;p style=&quot;margin:0;&quot;&gt;+---+---+---+---+---+---+---+---+&lt;/p&gt;&lt;p style=&quot;margin:0;&quot;&gt;| . | . | . | . | . | . | . | . |&lt;/p&gt;&lt;p style=&quot;margin:0;&quot;&gt;+---+---+---+---+---+---+---+---+&lt;/p&gt;&lt;p style=&quot;margin:0;&quot;&gt;| . | . | . | . | . | . | . | . |&lt;/p&gt;&lt;p style=&quot;margin:0;&quot;&gt;+---+---+---+---+---+---+---+---+&lt;/p&gt;&lt;p style=&quot;margin:0;&quot;&gt;| . | . | . | . | . | . | . | . |&lt;/p&gt;&lt;p style=&quot;margin:0;&quot;&gt;+---+---+---+---+---+---+---+---+&lt;/p&gt;&lt;/div&gt;&lt;/div&gt;&lt;/div&gt;&lt;/div&gt;" style="rounded=1;whiteSpace=wrap;html=1;fillColor=#f8cecc;strokeColor=#b85450;" parent="1" vertex="1">
          <mxGeometry x="160" y="2350" width="300" height="300" as="geometry" />
        </mxCell>
        <mxCell id="v4ZDc3-o21Q33p204Lgi-104" value="&lt;div style=&quot;background-color:#ffffff;padding:0px 2px 0px 2px;&quot;&gt;&lt;div style=&quot;&quot;&gt;&lt;div style=&quot;padding: 0px 2px;&quot;&gt;&lt;div style=&quot;font-family: Consolas; font-size: 10pt; white-space: pre;&quot;&gt;&lt;p style=&quot;margin:0;&quot;&gt; +---+---+---+---+---+---+---+---+&lt;/p&gt;&lt;p style=&quot;margin:0;&quot;&gt;| Q | . | . | . | . | . | . | . |&lt;/p&gt;&lt;p style=&quot;margin:0;&quot;&gt;+---+---+---+---+---+---+---+---+&lt;/p&gt;&lt;p style=&quot;margin:0;&quot;&gt;| . | . | . | . | Q | . | . | . |&lt;/p&gt;&lt;p style=&quot;margin:0;&quot;&gt;+---+---+---+---+---+---+---+---+&lt;/p&gt;&lt;p style=&quot;margin:0;&quot;&gt;| . | . | . | . | . | . | . | Q |&lt;/p&gt;&lt;p style=&quot;margin:0;&quot;&gt;+---+---+---+---+---+---+---+---+&lt;/p&gt;&lt;p style=&quot;margin:0;&quot;&gt;| . | . | . | . | . | . | Q | . |&lt;/p&gt;&lt;p style=&quot;margin:0;&quot;&gt;+---+---+---+---+---+---+---+---+&lt;/p&gt;&lt;p style=&quot;margin:0;&quot;&gt;| . | . | . | . | . | . | . | . |&lt;/p&gt;&lt;p style=&quot;margin:0;&quot;&gt;+---+---+---+---+---+---+---+---+&lt;/p&gt;&lt;p style=&quot;margin:0;&quot;&gt;| . | . | . | . | . | . | . | . |&lt;/p&gt;&lt;p style=&quot;margin:0;&quot;&gt;+---+---+---+---+---+---+---+---+&lt;/p&gt;&lt;p style=&quot;margin:0;&quot;&gt;| . | . | . | . | . | . | . | . |&lt;/p&gt;&lt;p style=&quot;margin:0;&quot;&gt;+---+---+---+---+---+---+---+---+&lt;/p&gt;&lt;p style=&quot;margin:0;&quot;&gt;| . | . | . | . | . | . | . | . |&lt;/p&gt;&lt;p style=&quot;margin:0;&quot;&gt;+---+---+---+---+---+---+---+---+&lt;/p&gt;&lt;/div&gt;&lt;/div&gt;&lt;/div&gt;&lt;/div&gt;" style="rounded=1;whiteSpace=wrap;html=1;fillColor=#f8cecc;strokeColor=#b85450;" parent="1" vertex="1">
          <mxGeometry x="-310" y="2350" width="300" height="300" as="geometry" />
        </mxCell>
        <mxCell id="v4ZDc3-o21Q33p204Lgi-105" value="&lt;div style=&quot;background-color:#ffffff;padding:0px 2px 0px 2px;&quot;&gt;&lt;div style=&quot;&quot;&gt;&lt;div style=&quot;padding: 0px 2px;&quot;&gt;&lt;div style=&quot;font-family: Consolas; font-size: 10pt; white-space: pre;&quot;&gt;&lt;p style=&quot;margin:0;&quot;&gt; +---+---+---+---+---+---+---+---+&lt;/p&gt;&lt;p style=&quot;margin:0;&quot;&gt;| Q | . | . | . | . | . | . | . |&lt;/p&gt;&lt;p style=&quot;margin:0;&quot;&gt;+---+---+---+---+---+---+---+---+&lt;/p&gt;&lt;p style=&quot;margin:0;&quot;&gt;| . | . | . | . | Q | . | . | . |&lt;/p&gt;&lt;p style=&quot;margin:0;&quot;&gt;+---+---+---+---+---+---+---+---+&lt;/p&gt;&lt;p style=&quot;margin:0;&quot;&gt;| . | . | . | . | . | . | . | Q |&lt;/p&gt;&lt;p style=&quot;margin:0;&quot;&gt;+---+---+---+---+---+---+---+---+&lt;/p&gt;&lt;p style=&quot;margin:0;&quot;&gt;| . | . | . | . | Q | . | . | . |&lt;/p&gt;&lt;p style=&quot;margin:0;&quot;&gt;+---+---+---+---+---+---+---+---+&lt;/p&gt;&lt;p style=&quot;margin:0;&quot;&gt;| . | . | . | . | . | . | . | . |&lt;/p&gt;&lt;p style=&quot;margin:0;&quot;&gt;+---+---+---+---+---+---+---+---+&lt;/p&gt;&lt;p style=&quot;margin:0;&quot;&gt;| . | . | . | . | . | . | . | . |&lt;/p&gt;&lt;p style=&quot;margin:0;&quot;&gt;+---+---+---+---+---+---+---+---+&lt;/p&gt;&lt;p style=&quot;margin:0;&quot;&gt;| . | . | . | . | . | . | . | . |&lt;/p&gt;&lt;p style=&quot;margin:0;&quot;&gt;+---+---+---+---+---+---+---+---+&lt;/p&gt;&lt;p style=&quot;margin:0;&quot;&gt;| . | . | . | . | . | . | . | . |&lt;/p&gt;&lt;p style=&quot;margin:0;&quot;&gt;+---+---+---+---+---+---+---+---+&lt;/p&gt;&lt;/div&gt;&lt;/div&gt;&lt;/div&gt;&lt;/div&gt;" style="rounded=1;whiteSpace=wrap;html=1;fillColor=#f8cecc;strokeColor=#b85450;" parent="1" vertex="1">
          <mxGeometry x="-790" y="2350" width="300" height="300" as="geometry" />
        </mxCell>
        <mxCell id="v4ZDc3-o21Q33p204Lgi-113" value="&lt;div style=&quot;background-color:#ffffff;padding:0px 2px 0px 2px;&quot;&gt;&lt;div style=&quot;&quot;&gt;&lt;div style=&quot;padding: 0px 2px;&quot;&gt;&lt;div style=&quot;font-family: Consolas; font-size: 10pt; white-space: pre;&quot;&gt;&lt;p style=&quot;margin:0;&quot;&gt;+---+---+---+---+---+---+---+---+&lt;/p&gt;&lt;p style=&quot;margin:0;&quot;&gt;| Q | . | . | . | . | . | . | . |&lt;/p&gt;&lt;p style=&quot;margin:0;&quot;&gt;+---+---+---+---+---+---+---+---+&lt;/p&gt;&lt;p style=&quot;margin:0;&quot;&gt;| . | . | . | . | Q | . | . | . |&lt;/p&gt;&lt;p style=&quot;margin:0;&quot;&gt;+---+---+---+---+---+---+---+---+&lt;/p&gt;&lt;p style=&quot;margin:0;&quot;&gt;| . | . | . | . | . | . | . | Q |&lt;/p&gt;&lt;p style=&quot;margin:0;&quot;&gt;+---+---+---+---+---+---+---+---+&lt;/p&gt;&lt;p style=&quot;margin:0;&quot;&gt;| . | . | . | . | . | Q | . | . |&lt;/p&gt;&lt;p style=&quot;margin:0;&quot;&gt;+---+---+---+---+---+---+---+---+&lt;/p&gt;&lt;p style=&quot;margin:0;&quot;&gt;| Q | . | . | . | . | . | . | . |&lt;/p&gt;&lt;p style=&quot;margin:0;&quot;&gt;+---+---+---+---+---+---+---+---+&lt;/p&gt;&lt;p style=&quot;margin:0;&quot;&gt;| . | . | . | . | . | . | . | . |&lt;/p&gt;&lt;p style=&quot;margin:0;&quot;&gt;+---+---+---+---+---+---+---+---+&lt;/p&gt;&lt;p style=&quot;margin:0;&quot;&gt;| . | . | . | . | . | . | . | . |&lt;/p&gt;&lt;p style=&quot;margin:0;&quot;&gt;+---+---+---+---+---+---+---+---+&lt;/p&gt;&lt;p style=&quot;margin:0;&quot;&gt;| . | . | . | . | . | . | . | . |&lt;/p&gt;&lt;p style=&quot;margin:0;&quot;&gt;+---+---+---+---+---+---+---+---+&lt;/p&gt;&lt;/div&gt;&lt;/div&gt;&lt;/div&gt;&lt;/div&gt;" style="rounded=1;whiteSpace=wrap;html=1;fillColor=#f8cecc;strokeColor=#b85450;" parent="1" vertex="1">
          <mxGeometry x="-2830" y="3010" width="300" height="300" as="geometry" />
        </mxCell>
        <mxCell id="v4ZDc3-o21Q33p204Lgi-114" value="&lt;div style=&quot;background-color:#ffffff;padding:0px 2px 0px 2px;&quot;&gt;&lt;div style=&quot;&quot;&gt;&lt;div style=&quot;padding: 0px 2px;&quot;&gt;&lt;div style=&quot;font-family: Consolas; font-size: 10pt; white-space: pre;&quot;&gt;&lt;p style=&quot;margin:0;&quot;&gt;+---+---+---+---+---+---+---+---+&lt;/p&gt;&lt;p style=&quot;margin:0;&quot;&gt;| Q | . | . | . | . | . | . | . |&lt;/p&gt;&lt;p style=&quot;margin:0;&quot;&gt;+---+---+---+---+---+---+---+---+&lt;/p&gt;&lt;p style=&quot;margin:0;&quot;&gt;| . | . | . | . | Q | . | . | . |&lt;/p&gt;&lt;p style=&quot;margin:0;&quot;&gt;+---+---+---+---+---+---+---+---+&lt;/p&gt;&lt;p style=&quot;margin:0;&quot;&gt;| . | . | . | . | . | . | . | Q |&lt;/p&gt;&lt;p style=&quot;margin:0;&quot;&gt;+---+---+---+---+---+---+---+---+&lt;/p&gt;&lt;p style=&quot;margin:0;&quot;&gt;| . | . | . | . | . | Q | . | . |&lt;/p&gt;&lt;p style=&quot;margin:0;&quot;&gt;+---+---+---+---+---+---+---+---+&lt;/p&gt;&lt;p style=&quot;margin:0;&quot;&gt;| . | Q | . | . | . | . | . | . |&lt;/p&gt;&lt;p style=&quot;margin:0;&quot;&gt;+---+---+---+---+---+---+---+---+&lt;/p&gt;&lt;p style=&quot;margin:0;&quot;&gt;| . | . | . | . | . | . | . | . |&lt;/p&gt;&lt;p style=&quot;margin:0;&quot;&gt;+---+---+---+---+---+---+---+---+&lt;/p&gt;&lt;p style=&quot;margin:0;&quot;&gt;| . | . | . | . | . | . | . | . |&lt;/p&gt;&lt;p style=&quot;margin:0;&quot;&gt;+---+---+---+---+---+---+---+---+&lt;/p&gt;&lt;p style=&quot;margin:0;&quot;&gt;| . | . | . | . | . | . | . | . |&lt;/p&gt;&lt;p style=&quot;margin:0;&quot;&gt;+---+---+---+---+---+---+---+---+&lt;/p&gt;&lt;/div&gt;&lt;/div&gt;&lt;/div&gt;&lt;/div&gt;" style="rounded=1;whiteSpace=wrap;html=1;fillColor=#f8cecc;strokeColor=#b85450;" parent="1" vertex="1">
          <mxGeometry x="-2420" y="3010" width="300" height="300" as="geometry" />
        </mxCell>
        <mxCell id="v4ZDc3-o21Q33p204Lgi-115" value="&lt;div style=&quot;background-color:#ffffff;padding:0px 2px 0px 2px;&quot;&gt;&lt;div style=&quot;&quot;&gt;&lt;div style=&quot;padding: 0px 2px;&quot;&gt;&lt;div style=&quot;font-family: Consolas; font-size: 10pt; white-space: pre;&quot;&gt;&lt;p style=&quot;margin:0;&quot;&gt;+---+---+---+---+---+---+---+---+&lt;/p&gt;&lt;p style=&quot;margin:0;&quot;&gt;| Q | . | . | . | . | . | . | . |&lt;/p&gt;&lt;p style=&quot;margin:0;&quot;&gt;+---+---+---+---+---+---+---+---+&lt;/p&gt;&lt;p style=&quot;margin:0;&quot;&gt;| . | . | . | . | Q | . | . | . |&lt;/p&gt;&lt;p style=&quot;margin:0;&quot;&gt;+---+---+---+---+---+---+---+---+&lt;/p&gt;&lt;p style=&quot;margin:0;&quot;&gt;| . | . | . | . | . | . | . | Q |&lt;/p&gt;&lt;p style=&quot;margin:0;&quot;&gt;+---+---+---+---+---+---+---+---+&lt;/p&gt;&lt;p style=&quot;margin:0;&quot;&gt;| . | . | . | . | . | Q | . | . |&lt;/p&gt;&lt;p style=&quot;margin:0;&quot;&gt;+---+---+---+---+---+---+---+---+&lt;/p&gt;&lt;p style=&quot;margin:0;&quot;&gt;| . | . | . | Q | . | . | . | . |&lt;/p&gt;&lt;p style=&quot;margin:0;&quot;&gt;+---+---+---+---+---+---+---+---+&lt;/p&gt;&lt;p style=&quot;margin:0;&quot;&gt;| . | . | . | . | . | . | . | . |&lt;/p&gt;&lt;p style=&quot;margin:0;&quot;&gt;+---+---+---+---+---+---+---+---+&lt;/p&gt;&lt;p style=&quot;margin:0;&quot;&gt;| . | . | . | . | . | . | . | . |&lt;/p&gt;&lt;p style=&quot;margin:0;&quot;&gt;+---+---+---+---+---+---+---+---+&lt;/p&gt;&lt;p style=&quot;margin:0;&quot;&gt;| . | . | . | . | . | . | . | . |&lt;/p&gt;&lt;p style=&quot;margin:0;&quot;&gt;+---+---+---+---+---+---+---+---+&lt;/p&gt;&lt;/div&gt;&lt;/div&gt;&lt;/div&gt;&lt;/div&gt;" style="rounded=1;whiteSpace=wrap;html=1;fillColor=#f8cecc;strokeColor=#b85450;" parent="1" vertex="1">
          <mxGeometry x="-1940" y="3010" width="300" height="300" as="geometry" />
        </mxCell>
        <mxCell id="v4ZDc3-o21Q33p204Lgi-116" value="&lt;div style=&quot;background-color:#ffffff;padding:0px 2px 0px 2px;&quot;&gt;&lt;div style=&quot;&quot;&gt;&lt;div style=&quot;padding: 0px 2px;&quot;&gt;&lt;div style=&quot;font-family: Consolas; font-size: 10pt; white-space: pre;&quot;&gt;&lt;p style=&quot;margin:0;&quot;&gt;+---+---+---+---+---+---+---+---+&lt;/p&gt;&lt;p style=&quot;margin:0;&quot;&gt;| Q | . | . | . | . | . | . | . |&lt;/p&gt;&lt;p style=&quot;margin:0;&quot;&gt;+---+---+---+---+---+---+---+---+&lt;/p&gt;&lt;p style=&quot;margin:0;&quot;&gt;| . | . | . | . | Q | . | . | . |&lt;/p&gt;&lt;p style=&quot;margin:0;&quot;&gt;+---+---+---+---+---+---+---+---+&lt;/p&gt;&lt;p style=&quot;margin:0;&quot;&gt;| . | . | . | . | . | . | . | Q |&lt;/p&gt;&lt;p style=&quot;margin:0;&quot;&gt;+---+---+---+---+---+---+---+---+&lt;/p&gt;&lt;p style=&quot;margin:0;&quot;&gt;| . | . | . | . | . | Q | . | . |&lt;/p&gt;&lt;p style=&quot;margin:0;&quot;&gt;+---+---+---+---+---+---+---+---+&lt;/p&gt;&lt;p style=&quot;margin:0;&quot;&gt;| . | . | . | . | . | . | . | Q |&lt;/p&gt;&lt;p style=&quot;margin:0;&quot;&gt;+---+---+---+---+---+---+---+---+&lt;/p&gt;&lt;p style=&quot;margin:0;&quot;&gt;| . | . | . | . | . | . | . | . |&lt;/p&gt;&lt;p style=&quot;margin:0;&quot;&gt;+---+---+---+---+---+---+---+---+&lt;/p&gt;&lt;p style=&quot;margin:0;&quot;&gt;| . | . | . | . | . | . | . | . |&lt;/p&gt;&lt;p style=&quot;margin:0;&quot;&gt;+---+---+---+---+---+---+---+---+&lt;/p&gt;&lt;p style=&quot;margin:0;&quot;&gt;| . | . | . | . | . | . | . | . |&lt;/p&gt;&lt;p style=&quot;margin:0;&quot;&gt;+---+---+---+---+---+---+---+---+&lt;/p&gt;&lt;/div&gt;&lt;/div&gt;&lt;/div&gt;&lt;/div&gt;" style="rounded=1;whiteSpace=wrap;html=1;fillColor=#f8cecc;strokeColor=#b85450;" parent="1" vertex="1">
          <mxGeometry x="540" y="3010" width="300" height="300" as="geometry" />
        </mxCell>
        <mxCell id="v4ZDc3-o21Q33p204Lgi-117" value="&lt;div style=&quot;background-color:#ffffff;padding:0px 2px 0px 2px;&quot;&gt;&lt;div style=&quot;&quot;&gt;&lt;div style=&quot;padding: 0px 2px;&quot;&gt;&lt;div style=&quot;font-family: Consolas; font-size: 10pt; white-space: pre;&quot;&gt;&lt;p style=&quot;margin:0;&quot;&gt;+---+---+---+---+---+---+---+---+&lt;/p&gt;&lt;p style=&quot;margin:0;&quot;&gt;| Q | . | . | . | . | . | . | . |&lt;/p&gt;&lt;p style=&quot;margin:0;&quot;&gt;+---+---+---+---+---+---+---+---+&lt;/p&gt;&lt;p style=&quot;margin:0;&quot;&gt;| . | . | . | . | Q | . | . | . |&lt;/p&gt;&lt;p style=&quot;margin:0;&quot;&gt;+---+---+---+---+---+---+---+---+&lt;/p&gt;&lt;p style=&quot;margin:0;&quot;&gt;| . | . | . | . | . | . | . | Q |&lt;/p&gt;&lt;p style=&quot;margin:0;&quot;&gt;+---+---+---+---+---+---+---+---+&lt;/p&gt;&lt;p style=&quot;margin:0;&quot;&gt;| . | . | . | . | . | Q | . | . |&lt;/p&gt;&lt;p style=&quot;margin:0;&quot;&gt;+---+---+---+---+---+---+---+---+&lt;/p&gt;&lt;p style=&quot;margin:0;&quot;&gt;| . | . | . | . | . | . | Q | . |&lt;/p&gt;&lt;p style=&quot;margin:0;&quot;&gt;+---+---+---+---+---+---+---+---+&lt;/p&gt;&lt;p style=&quot;margin:0;&quot;&gt;| . | . | . | . | . | . | . | . |&lt;/p&gt;&lt;p style=&quot;margin:0;&quot;&gt;+---+---+---+---+---+---+---+---+&lt;/p&gt;&lt;p style=&quot;margin:0;&quot;&gt;| . | . | . | . | . | . | . | . |&lt;/p&gt;&lt;p style=&quot;margin:0;&quot;&gt;+---+---+---+---+---+---+---+---+&lt;/p&gt;&lt;p style=&quot;margin:0;&quot;&gt;| . | . | . | . | . | . | . | . |&lt;/p&gt;&lt;p style=&quot;margin:0;&quot;&gt;+---+---+---+---+---+---+---+---+&lt;/p&gt;&lt;/div&gt;&lt;/div&gt;&lt;/div&gt;&lt;/div&gt;" style="rounded=1;whiteSpace=wrap;html=1;fillColor=#f8cecc;strokeColor=#b85450;" parent="1" vertex="1">
          <mxGeometry x="70" y="3010" width="300" height="300" as="geometry" />
        </mxCell>
        <mxCell id="v4ZDc3-o21Q33p204Lgi-118" value="&lt;div style=&quot;background-color:#ffffff;padding:0px 2px 0px 2px;&quot;&gt;&lt;div style=&quot;&quot;&gt;&lt;div style=&quot;padding: 0px 2px;&quot;&gt;&lt;div style=&quot;font-family: Consolas; font-size: 10pt; white-space: pre;&quot;&gt;&lt;p style=&quot;margin:0;&quot;&gt;+---+---+---+---+---+---+---+---+&lt;/p&gt;&lt;p style=&quot;margin:0;&quot;&gt;| Q | . | . | . | . | . | . | . |&lt;/p&gt;&lt;p style=&quot;margin:0;&quot;&gt;+---+---+---+---+---+---+---+---+&lt;/p&gt;&lt;p style=&quot;margin:0;&quot;&gt;| . | . | . | . | Q | . | . | . |&lt;/p&gt;&lt;p style=&quot;margin:0;&quot;&gt;+---+---+---+---+---+---+---+---+&lt;/p&gt;&lt;p style=&quot;margin:0;&quot;&gt;| . | . | . | . | . | . | . | Q |&lt;/p&gt;&lt;p style=&quot;margin:0;&quot;&gt;+---+---+---+---+---+---+---+---+&lt;/p&gt;&lt;p style=&quot;margin:0;&quot;&gt;| . | . | . | . | . | Q | . | . |&lt;/p&gt;&lt;p style=&quot;margin:0;&quot;&gt;+---+---+---+---+---+---+---+---+&lt;/p&gt;&lt;p style=&quot;margin:0;&quot;&gt;| . | . | . | . | . | Q | . | . |&lt;/p&gt;&lt;p style=&quot;margin:0;&quot;&gt;+---+---+---+---+---+---+---+---+&lt;/p&gt;&lt;p style=&quot;margin:0;&quot;&gt;| . | . | . | . | . | . | . | . |&lt;/p&gt;&lt;p style=&quot;margin:0;&quot;&gt;+---+---+---+---+---+---+---+---+&lt;/p&gt;&lt;p style=&quot;margin:0;&quot;&gt;| . | . | . | . | . | . | . | . |&lt;/p&gt;&lt;p style=&quot;margin:0;&quot;&gt;+---+---+---+---+---+---+---+---+&lt;/p&gt;&lt;p style=&quot;margin:0;&quot;&gt;| . | . | . | . | . | . | . | . |&lt;/p&gt;&lt;p style=&quot;margin:0;&quot;&gt;+---+---+---+---+---+---+---+---+&lt;/p&gt;&lt;/div&gt;&lt;/div&gt;&lt;/div&gt;&lt;/div&gt;" style="rounded=1;whiteSpace=wrap;html=1;fillColor=#f8cecc;strokeColor=#b85450;" parent="1" vertex="1">
          <mxGeometry x="-400" y="3010" width="300" height="300" as="geometry" />
        </mxCell>
        <mxCell id="v4ZDc3-o21Q33p204Lgi-119" value="&lt;div style=&quot;background-color:#ffffff;padding:0px 2px 0px 2px;&quot;&gt;&lt;div style=&quot;&quot;&gt;&lt;div style=&quot;padding: 0px 2px;&quot;&gt;&lt;div style=&quot;font-family: Consolas; font-size: 10pt; white-space: pre;&quot;&gt;&lt;p style=&quot;margin:0;&quot;&gt;+---+---+---+---+---+---+---+---+&lt;/p&gt;&lt;p style=&quot;margin:0;&quot;&gt;| Q | . | . | . | . | . | . | . |&lt;/p&gt;&lt;p style=&quot;margin:0;&quot;&gt;+---+---+---+---+---+---+---+---+&lt;/p&gt;&lt;p style=&quot;margin:0;&quot;&gt;| . | . | . | . | Q | . | . | . |&lt;/p&gt;&lt;p style=&quot;margin:0;&quot;&gt;+---+---+---+---+---+---+---+---+&lt;/p&gt;&lt;p style=&quot;margin:0;&quot;&gt;| . | . | . | . | . | . | . | Q |&lt;/p&gt;&lt;p style=&quot;margin:0;&quot;&gt;+---+---+---+---+---+---+---+---+&lt;/p&gt;&lt;p style=&quot;margin:0;&quot;&gt;| . | . | . | . | . | Q | . | . |&lt;/p&gt;&lt;p style=&quot;margin:0;&quot;&gt;+---+---+---+---+---+---+---+---+&lt;/p&gt;&lt;p style=&quot;margin:0;&quot;&gt;| . | . | . | . | Q | . | . | . |&lt;/p&gt;&lt;p style=&quot;margin:0;&quot;&gt;+---+---+---+---+---+---+---+---+&lt;/p&gt;&lt;p style=&quot;margin:0;&quot;&gt;| . | . | . | . | . | . | . | . |&lt;/p&gt;&lt;p style=&quot;margin:0;&quot;&gt;+---+---+---+---+---+---+---+---+&lt;/p&gt;&lt;p style=&quot;margin:0;&quot;&gt;| . | . | . | . | . | . | . | . |&lt;/p&gt;&lt;p style=&quot;margin:0;&quot;&gt;+---+---+---+---+---+---+---+---+&lt;/p&gt;&lt;p style=&quot;margin:0;&quot;&gt;| . | . | . | . | . | . | . | . |&lt;/p&gt;&lt;p style=&quot;margin:0;&quot;&gt;+---+---+---+---+---+---+---+---+&lt;/p&gt;&lt;/div&gt;&lt;/div&gt;&lt;/div&gt;&lt;/div&gt;" style="rounded=1;whiteSpace=wrap;html=1;fillColor=#f8cecc;strokeColor=#b85450;" parent="1" vertex="1">
          <mxGeometry x="-1390" y="3010" width="300" height="300" as="geometry" />
        </mxCell>
        <mxCell id="v4ZDc3-o21Q33p204Lgi-127" value="&lt;div style=&quot;background-color:#ffffff;padding:0px 2px 0px 2px;&quot;&gt;&lt;div style=&quot;&quot;&gt;&lt;div style=&quot;padding: 0px 2px;&quot;&gt;&lt;div style=&quot;font-family: Consolas; font-size: 10pt; white-space: pre;&quot;&gt;&lt;p style=&quot;margin:0;&quot;&gt;+---+---+---+---+---+---+---+---+&lt;/p&gt;&lt;p style=&quot;margin:0;&quot;&gt;| Q | . | . | . | . | . | . | . |&lt;/p&gt;&lt;p style=&quot;margin:0;&quot;&gt;+---+---+---+---+---+---+---+---+&lt;/p&gt;&lt;p style=&quot;margin:0;&quot;&gt;| . | . | . | . | Q | . | . | . |&lt;/p&gt;&lt;p style=&quot;margin:0;&quot;&gt;+---+---+---+---+---+---+---+---+&lt;/p&gt;&lt;p style=&quot;margin:0;&quot;&gt;| . | . | . | . | . | . | . | Q |&lt;/p&gt;&lt;p style=&quot;margin:0;&quot;&gt;+---+---+---+---+---+---+---+---+&lt;/p&gt;&lt;p style=&quot;margin:0;&quot;&gt;| . | . | . | . | . | Q | . | . |&lt;/p&gt;&lt;p style=&quot;margin:0;&quot;&gt;+---+---+---+---+---+---+---+---+&lt;/p&gt;&lt;p style=&quot;margin:0;&quot;&gt;| . | . | Q | . | . | . | . | . |&lt;/p&gt;&lt;p style=&quot;margin:0;&quot;&gt;+---+---+---+---+---+---+---+---+&lt;/p&gt;&lt;p style=&quot;margin:0;&quot;&gt;| Q | . | . | . | . | . | . | . |&lt;/p&gt;&lt;p style=&quot;margin:0;&quot;&gt;+---+---+---+---+---+---+---+---+&lt;/p&gt;&lt;p style=&quot;margin:0;&quot;&gt;| . | . | . | . | . | . | . | . |&lt;/p&gt;&lt;p style=&quot;margin:0;&quot;&gt;+---+---+---+---+---+---+---+---+&lt;/p&gt;&lt;p style=&quot;margin:0;&quot;&gt;| . | . | . | . | . | . | . | . |&lt;/p&gt;&lt;p style=&quot;margin:0;&quot;&gt;+---+---+---+---+---+---+---+---+&lt;/p&gt;&lt;/div&gt;&lt;/div&gt;&lt;/div&gt;&lt;/div&gt;" style="rounded=1;whiteSpace=wrap;html=1;fillColor=#f8cecc;strokeColor=#b85450;" parent="1" vertex="1">
          <mxGeometry x="-2275" y="3500" width="300" height="300" as="geometry" />
        </mxCell>
        <mxCell id="v4ZDc3-o21Q33p204Lgi-128" value="&lt;div style=&quot;background-color:#ffffff;padding:0px 2px 0px 2px;&quot;&gt;&lt;div style=&quot;&quot;&gt;&lt;div style=&quot;padding: 0px 2px;&quot;&gt;&lt;div style=&quot;font-family: Consolas; font-size: 10pt; white-space: pre;&quot;&gt;&lt;p style=&quot;margin:0;&quot;&gt;+---+---+---+---+---+---+---+---+&lt;/p&gt;&lt;p style=&quot;margin:0;&quot;&gt;| Q | . | . | . | . | . | . | . |&lt;/p&gt;&lt;p style=&quot;margin:0;&quot;&gt;+---+---+---+---+---+---+---+---+&lt;/p&gt;&lt;p style=&quot;margin:0;&quot;&gt;| . | . | . | . | Q | . | . | . |&lt;/p&gt;&lt;p style=&quot;margin:0;&quot;&gt;+---+---+---+---+---+---+---+---+&lt;/p&gt;&lt;p style=&quot;margin:0;&quot;&gt;| . | . | . | . | . | . | . | Q |&lt;/p&gt;&lt;p style=&quot;margin:0;&quot;&gt;+---+---+---+---+---+---+---+---+&lt;/p&gt;&lt;p style=&quot;margin:0;&quot;&gt;| . | . | . | . | . | Q | . | . |&lt;/p&gt;&lt;p style=&quot;margin:0;&quot;&gt;+---+---+---+---+---+---+---+---+&lt;/p&gt;&lt;p style=&quot;margin:0;&quot;&gt;| . | . | Q | . | . | . | . | . |&lt;/p&gt;&lt;p style=&quot;margin:0;&quot;&gt;+---+---+---+---+---+---+---+---+&lt;/p&gt;&lt;p style=&quot;margin:0;&quot;&gt;| . | Q | . | . | . | . | . | . |&lt;/p&gt;&lt;p style=&quot;margin:0;&quot;&gt;+---+---+---+---+---+---+---+---+&lt;/p&gt;&lt;p style=&quot;margin:0;&quot;&gt;| . | . | . | . | . | . | . | . |&lt;/p&gt;&lt;p style=&quot;margin:0;&quot;&gt;+---+---+---+---+---+---+---+---+&lt;/p&gt;&lt;p style=&quot;margin:0;&quot;&gt;| . | . | . | . | . | . | . | . |&lt;/p&gt;&lt;p style=&quot;margin:0;&quot;&gt;+---+---+---+---+---+---+---+---+&lt;/p&gt;&lt;/div&gt;&lt;/div&gt;&lt;/div&gt;&lt;/div&gt;" style="rounded=1;whiteSpace=wrap;html=1;fillColor=#f8cecc;strokeColor=#b85450;" parent="1" vertex="1">
          <mxGeometry x="-1790" y="3500" width="300" height="300" as="geometry" />
        </mxCell>
        <mxCell id="v4ZDc3-o21Q33p204Lgi-129" value="&lt;div style=&quot;background-color:#ffffff;padding:0px 2px 0px 2px;&quot;&gt;&lt;div style=&quot;&quot;&gt;&lt;div style=&quot;padding: 0px 2px;&quot;&gt;&lt;div style=&quot;font-family: Consolas; font-size: 10pt; white-space: pre;&quot;&gt;&lt;p style=&quot;margin:0;&quot;&gt;+---+---+---+---+---+---+---+---+&lt;/p&gt;&lt;p style=&quot;margin:0;&quot;&gt;| Q | . | . | . | . | . | . | . |&lt;/p&gt;&lt;p style=&quot;margin:0;&quot;&gt;+---+---+---+---+---+---+---+---+&lt;/p&gt;&lt;p style=&quot;margin:0;&quot;&gt;| . | . | . | . | Q | . | . | . |&lt;/p&gt;&lt;p style=&quot;margin:0;&quot;&gt;+---+---+---+---+---+---+---+---+&lt;/p&gt;&lt;p style=&quot;margin:0;&quot;&gt;| . | . | . | . | . | . | . | Q |&lt;/p&gt;&lt;p style=&quot;margin:0;&quot;&gt;+---+---+---+---+---+---+---+---+&lt;/p&gt;&lt;p style=&quot;margin:0;&quot;&gt;| . | . | . | . | . | Q | . | . |&lt;/p&gt;&lt;p style=&quot;margin:0;&quot;&gt;+---+---+---+---+---+---+---+---+&lt;/p&gt;&lt;p style=&quot;margin:0;&quot;&gt;| . | . | Q | . | . | . | . | . |&lt;/p&gt;&lt;p style=&quot;margin:0;&quot;&gt;+---+---+---+---+---+---+---+---+&lt;/p&gt;&lt;p style=&quot;margin:0;&quot;&gt;| . | . | Q | . | . | . | . | . |&lt;/p&gt;&lt;p style=&quot;margin:0;&quot;&gt;+---+---+---+---+---+---+---+---+&lt;/p&gt;&lt;p style=&quot;margin:0;&quot;&gt;| . | . | . | . | . | . | . | . |&lt;/p&gt;&lt;p style=&quot;margin:0;&quot;&gt;+---+---+---+---+---+---+---+---+&lt;/p&gt;&lt;p style=&quot;margin:0;&quot;&gt;| . | . | . | . | . | . | . | . |&lt;/p&gt;&lt;p style=&quot;margin:0;&quot;&gt;+---+---+---+---+---+---+---+---+&lt;/p&gt;&lt;/div&gt;&lt;/div&gt;&lt;/div&gt;&lt;/div&gt;" style="rounded=1;whiteSpace=wrap;html=1;fillColor=#f8cecc;strokeColor=#b85450;" parent="1" vertex="1">
          <mxGeometry x="-1350" y="3500" width="300" height="300" as="geometry" />
        </mxCell>
        <mxCell id="v4ZDc3-o21Q33p204Lgi-130" value="&lt;div style=&quot;background-color:#ffffff;padding:0px 2px 0px 2px;&quot;&gt;&lt;div style=&quot;&quot;&gt;&lt;div style=&quot;padding: 0px 2px;&quot;&gt;&lt;div style=&quot;font-family: Consolas; font-size: 10pt; white-space: pre;&quot;&gt;&lt;p style=&quot;margin:0;&quot;&gt;+---+---+---+---+---+---+---+---+&lt;/p&gt;&lt;p style=&quot;margin:0;&quot;&gt;| Q | . | . | . | . | . | . | . |&lt;/p&gt;&lt;p style=&quot;margin:0;&quot;&gt;+---+---+---+---+---+---+---+---+&lt;/p&gt;&lt;p style=&quot;margin:0;&quot;&gt;| . | . | . | . | Q | . | . | . |&lt;/p&gt;&lt;p style=&quot;margin:0;&quot;&gt;+---+---+---+---+---+---+---+---+&lt;/p&gt;&lt;p style=&quot;margin:0;&quot;&gt;| . | . | . | . | . | . | . | Q |&lt;/p&gt;&lt;p style=&quot;margin:0;&quot;&gt;+---+---+---+---+---+---+---+---+&lt;/p&gt;&lt;p style=&quot;margin:0;&quot;&gt;| . | . | . | . | . | Q | . | . |&lt;/p&gt;&lt;p style=&quot;margin:0;&quot;&gt;+---+---+---+---+---+---+---+---+&lt;/p&gt;&lt;p style=&quot;margin:0;&quot;&gt;| . | . | Q | . | . | . | . | . |&lt;/p&gt;&lt;p style=&quot;margin:0;&quot;&gt;+---+---+---+---+---+---+---+---+&lt;/p&gt;&lt;p style=&quot;margin:0;&quot;&gt;| . | . | . | . | . | . | . | Q |&lt;/p&gt;&lt;p style=&quot;margin:0;&quot;&gt;+---+---+---+---+---+---+---+---+&lt;/p&gt;&lt;p style=&quot;margin:0;&quot;&gt;| . | . | . | . | . | . | . | . |&lt;/p&gt;&lt;p style=&quot;margin:0;&quot;&gt;+---+---+---+---+---+---+---+---+&lt;/p&gt;&lt;p style=&quot;margin:0;&quot;&gt;| . | . | . | . | . | . | . | . |&lt;/p&gt;&lt;p style=&quot;margin:0;&quot;&gt;+---+---+---+---+---+---+---+---+&lt;/p&gt;&lt;/div&gt;&lt;/div&gt;&lt;/div&gt;&lt;/div&gt;" style="rounded=1;whiteSpace=wrap;html=1;fillColor=#f8cecc;strokeColor=#b85450;" parent="1" vertex="1">
          <mxGeometry x="970" y="3500" width="300" height="300" as="geometry" />
        </mxCell>
        <mxCell id="v4ZDc3-o21Q33p204Lgi-131" value="&lt;div style=&quot;background-color:#ffffff;padding:0px 2px 0px 2px;&quot;&gt;&lt;div style=&quot;&quot;&gt;&lt;div style=&quot;padding: 0px 2px;&quot;&gt;&lt;div style=&quot;font-family: Consolas; font-size: 10pt; white-space: pre;&quot;&gt;&lt;p style=&quot;margin:0;&quot;&gt;+---+---+---+---+---+---+---+---+&lt;/p&gt;&lt;p style=&quot;margin:0;&quot;&gt;| Q | . | . | . | . | . | . | . |&lt;/p&gt;&lt;p style=&quot;margin:0;&quot;&gt;+---+---+---+---+---+---+---+---+&lt;/p&gt;&lt;p style=&quot;margin:0;&quot;&gt;| . | . | . | . | Q | . | . | . |&lt;/p&gt;&lt;p style=&quot;margin:0;&quot;&gt;+---+---+---+---+---+---+---+---+&lt;/p&gt;&lt;p style=&quot;margin:0;&quot;&gt;| . | . | . | . | . | . | . | Q |&lt;/p&gt;&lt;p style=&quot;margin:0;&quot;&gt;+---+---+---+---+---+---+---+---+&lt;/p&gt;&lt;p style=&quot;margin:0;&quot;&gt;| . | . | . | . | . | Q | . | . |&lt;/p&gt;&lt;p style=&quot;margin:0;&quot;&gt;+---+---+---+---+---+---+---+---+&lt;/p&gt;&lt;p style=&quot;margin:0;&quot;&gt;| . | . | Q | . | . | . | . | . |&lt;/p&gt;&lt;p style=&quot;margin:0;&quot;&gt;+---+---+---+---+---+---+---+---+&lt;/p&gt;&lt;p style=&quot;margin:0;&quot;&gt;| . | . | . | . | . | Q | . | . |&lt;/p&gt;&lt;p style=&quot;margin:0;&quot;&gt;+---+---+---+---+---+---+---+---+&lt;/p&gt;&lt;p style=&quot;margin:0;&quot;&gt;| . | . | . | . | . | . | . | . |&lt;/p&gt;&lt;p style=&quot;margin:0;&quot;&gt;+---+---+---+---+---+---+---+---+&lt;/p&gt;&lt;p style=&quot;margin:0;&quot;&gt;| . | . | . | . | . | . | . | . |&lt;/p&gt;&lt;p style=&quot;margin:0;&quot;&gt;+---+---+---+---+---+---+---+---+&lt;/p&gt;&lt;/div&gt;&lt;/div&gt;&lt;/div&gt;&lt;/div&gt;" style="rounded=1;whiteSpace=wrap;html=1;fillColor=#f8cecc;strokeColor=#b85450;" parent="1" vertex="1">
          <mxGeometry x="580" y="3500" width="300" height="300" as="geometry" />
        </mxCell>
        <mxCell id="v4ZDc3-o21Q33p204Lgi-132" value="&lt;div style=&quot;background-color:#ffffff;padding:0px 2px 0px 2px;&quot;&gt;&lt;div style=&quot;&quot;&gt;&lt;div style=&quot;padding: 0px 2px;&quot;&gt;&lt;div style=&quot;font-family: Consolas; font-size: 10pt; white-space: pre;&quot;&gt;&lt;p style=&quot;margin:0;&quot;&gt;+---+---+---+---+---+---+---+---+&lt;/p&gt;&lt;p style=&quot;margin:0;&quot;&gt;| Q | . | . | . | . | . | . | . |&lt;/p&gt;&lt;p style=&quot;margin:0;&quot;&gt;+---+---+---+---+---+---+---+---+&lt;/p&gt;&lt;p style=&quot;margin:0;&quot;&gt;| . | . | . | . | Q | . | . | . |&lt;/p&gt;&lt;p style=&quot;margin:0;&quot;&gt;+---+---+---+---+---+---+---+---+&lt;/p&gt;&lt;p style=&quot;margin:0;&quot;&gt;| . | . | . | . | . | . | . | Q |&lt;/p&gt;&lt;p style=&quot;margin:0;&quot;&gt;+---+---+---+---+---+---+---+---+&lt;/p&gt;&lt;p style=&quot;margin:0;&quot;&gt;| . | . | . | . | . | Q | . | . |&lt;/p&gt;&lt;p style=&quot;margin:0;&quot;&gt;+---+---+---+---+---+---+---+---+&lt;/p&gt;&lt;p style=&quot;margin:0;&quot;&gt;| . | . | Q | . | . | . | . | . |&lt;/p&gt;&lt;p style=&quot;margin:0;&quot;&gt;+---+---+---+---+---+---+---+---+&lt;/p&gt;&lt;p style=&quot;margin:0;&quot;&gt;| . | . | . | . | Q | . | . | . |&lt;/p&gt;&lt;p style=&quot;margin:0;&quot;&gt;+---+---+---+---+---+---+---+---+&lt;/p&gt;&lt;p style=&quot;margin:0;&quot;&gt;| . | . | . | . | . | . | . | . |&lt;/p&gt;&lt;p style=&quot;margin:0;&quot;&gt;+---+---+---+---+---+---+---+---+&lt;/p&gt;&lt;p style=&quot;margin:0;&quot;&gt;| . | . | . | . | . | . | . | . |&lt;/p&gt;&lt;p style=&quot;margin:0;&quot;&gt;+---+---+---+---+---+---+---+---+&lt;/p&gt;&lt;/div&gt;&lt;/div&gt;&lt;/div&gt;&lt;/div&gt;" style="rounded=1;whiteSpace=wrap;html=1;fillColor=#f8cecc;strokeColor=#b85450;" parent="1" vertex="1">
          <mxGeometry x="140" y="3500" width="300" height="300" as="geometry" />
        </mxCell>
        <mxCell id="v4ZDc3-o21Q33p204Lgi-133" value="&lt;div style=&quot;background-color:#ffffff;padding:0px 2px 0px 2px;&quot;&gt;&lt;div style=&quot;&quot;&gt;&lt;div style=&quot;padding: 0px 2px;&quot;&gt;&lt;div style=&quot;font-family: Consolas; font-size: 10pt; white-space: pre;&quot;&gt;&lt;p style=&quot;margin:0;&quot;&gt;+---+---+---+---+---+---+---+---+&lt;/p&gt;&lt;p style=&quot;margin:0;&quot;&gt;| Q | . | . | . | . | . | . | . |&lt;/p&gt;&lt;p style=&quot;margin:0;&quot;&gt;+---+---+---+---+---+---+---+---+&lt;/p&gt;&lt;p style=&quot;margin:0;&quot;&gt;| . | . | . | . | Q | . | . | . |&lt;/p&gt;&lt;p style=&quot;margin:0;&quot;&gt;+---+---+---+---+---+---+---+---+&lt;/p&gt;&lt;p style=&quot;margin:0;&quot;&gt;| . | . | . | . | . | . | . | Q |&lt;/p&gt;&lt;p style=&quot;margin:0;&quot;&gt;+---+---+---+---+---+---+---+---+&lt;/p&gt;&lt;p style=&quot;margin:0;&quot;&gt;| . | . | . | . | . | Q | . | . |&lt;/p&gt;&lt;p style=&quot;margin:0;&quot;&gt;+---+---+---+---+---+---+---+---+&lt;/p&gt;&lt;p style=&quot;margin:0;&quot;&gt;| . | . | Q | . | . | . | . | . |&lt;/p&gt;&lt;p style=&quot;margin:0;&quot;&gt;+---+---+---+---+---+---+---+---+&lt;/p&gt;&lt;p style=&quot;margin:0;&quot;&gt;| . | . | . | Q | . | . | . | . |&lt;/p&gt;&lt;p style=&quot;margin:0;&quot;&gt;+---+---+---+---+---+---+---+---+&lt;/p&gt;&lt;p style=&quot;margin:0;&quot;&gt;| . | . | . | . | . | . | . | . |&lt;/p&gt;&lt;p style=&quot;margin:0;&quot;&gt;+---+---+---+---+---+---+---+---+&lt;/p&gt;&lt;p style=&quot;margin:0;&quot;&gt;| . | . | . | . | . | . | . | . |&lt;/p&gt;&lt;p style=&quot;margin:0;&quot;&gt;+---+---+---+---+---+---+---+---+&lt;/p&gt;&lt;/div&gt;&lt;/div&gt;&lt;/div&gt;&lt;/div&gt;" style="rounded=1;whiteSpace=wrap;html=1;fillColor=#f8cecc;strokeColor=#b85450;" parent="1" vertex="1">
          <mxGeometry x="-330" y="3500" width="300" height="300" as="geometry" />
        </mxCell>
        <mxCell id="v4ZDc3-o21Q33p204Lgi-141" value="&lt;div style=&quot;background-color:#ffffff;padding:0px 2px 0px 2px;&quot;&gt;&lt;div style=&quot;&quot;&gt;&lt;div style=&quot;padding: 0px 2px;&quot;&gt;&lt;div style=&quot;font-family: Consolas; font-size: 10pt; white-space: pre;&quot;&gt;&lt;p style=&quot;margin:0;&quot;&gt;+---+---+---+---+---+---+---+---+&lt;/p&gt;&lt;p style=&quot;margin:0;&quot;&gt;| Q | . | . | . | . | . | . | . |&lt;/p&gt;&lt;p style=&quot;margin:0;&quot;&gt;+---+---+---+---+---+---+---+---+&lt;/p&gt;&lt;p style=&quot;margin:0;&quot;&gt;| . | . | . | . | Q | . | . | . |&lt;/p&gt;&lt;p style=&quot;margin:0;&quot;&gt;+---+---+---+---+---+---+---+---+&lt;/p&gt;&lt;p style=&quot;margin:0;&quot;&gt;| . | . | . | . | . | . | . | Q |&lt;/p&gt;&lt;p style=&quot;margin:0;&quot;&gt;+---+---+---+---+---+---+---+---+&lt;/p&gt;&lt;p style=&quot;margin:0;&quot;&gt;| . | . | . | . | . | Q | . | . |&lt;/p&gt;&lt;p style=&quot;margin:0;&quot;&gt;+---+---+---+---+---+---+---+---+&lt;/p&gt;&lt;p style=&quot;margin:0;&quot;&gt;| . | . | Q | . | . | . | . | . |&lt;/p&gt;&lt;p style=&quot;margin:0;&quot;&gt;+---+---+---+---+---+---+---+---+&lt;/p&gt;&lt;p style=&quot;margin:0;&quot;&gt;| . | . | . | . | . | . | Q | . |&lt;/p&gt;&lt;p style=&quot;margin:0;&quot;&gt;+---+---+---+---+---+---+---+---+&lt;/p&gt;&lt;p style=&quot;margin:0;&quot;&gt;| Q | . | . | . | . | . | . | . |&lt;/p&gt;&lt;p style=&quot;margin:0;&quot;&gt;+---+---+---+---+---+---+---+---+&lt;/p&gt;&lt;p style=&quot;margin:0;&quot;&gt;| . | . | . | . | . | . | . | . |&lt;/p&gt;&lt;p style=&quot;margin:0;&quot;&gt;+---+---+---+---+---+---+---+---+&lt;/p&gt;&lt;/div&gt;&lt;/div&gt;&lt;/div&gt;&lt;/div&gt;" style="rounded=1;whiteSpace=wrap;html=1;fillColor=#f8cecc;strokeColor=#b85450;" parent="1" vertex="1">
          <mxGeometry x="-2610" y="3990" width="300" height="300" as="geometry" />
        </mxCell>
        <mxCell id="v4ZDc3-o21Q33p204Lgi-142" value="&lt;div style=&quot;background-color:#ffffff;padding:0px 2px 0px 2px;&quot;&gt;&lt;div style=&quot;&quot;&gt;&lt;div style=&quot;padding: 0px 2px;&quot;&gt;&lt;div style=&quot;font-family: Consolas; font-size: 10pt; white-space: pre;&quot;&gt;&lt;p style=&quot;margin:0;&quot;&gt;+---+---+---+---+---+---+---+---+&lt;/p&gt;&lt;p style=&quot;margin:0;&quot;&gt;| Q | . | . | . | . | . | . | . |&lt;/p&gt;&lt;p style=&quot;margin:0;&quot;&gt;+---+---+---+---+---+---+---+---+&lt;/p&gt;&lt;p style=&quot;margin:0;&quot;&gt;| . | . | . | . | Q | . | . | . |&lt;/p&gt;&lt;p style=&quot;margin:0;&quot;&gt;+---+---+---+---+---+---+---+---+&lt;/p&gt;&lt;p style=&quot;margin:0;&quot;&gt;| . | . | . | . | . | . | . | Q |&lt;/p&gt;&lt;p style=&quot;margin:0;&quot;&gt;+---+---+---+---+---+---+---+---+&lt;/p&gt;&lt;p style=&quot;margin:0;&quot;&gt;| . | . | . | . | . | Q | . | . |&lt;/p&gt;&lt;p style=&quot;margin:0;&quot;&gt;+---+---+---+---+---+---+---+---+&lt;/p&gt;&lt;p style=&quot;margin:0;&quot;&gt;| . | . | Q | . | . | . | . | . |&lt;/p&gt;&lt;p style=&quot;margin:0;&quot;&gt;+---+---+---+---+---+---+---+---+&lt;/p&gt;&lt;p style=&quot;margin:0;&quot;&gt;| . | . | . | . | . | . | Q | . |&lt;/p&gt;&lt;p style=&quot;margin:0;&quot;&gt;+---+---+---+---+---+---+---+---+&lt;/p&gt;&lt;p style=&quot;margin:0;&quot;&gt;| . | . | Q | . | . | . | . | . |&lt;/p&gt;&lt;p style=&quot;margin:0;&quot;&gt;+---+---+---+---+---+---+---+---+&lt;/p&gt;&lt;p style=&quot;margin:0;&quot;&gt;| . | . | . | . | . | . | . | . |&lt;/p&gt;&lt;p style=&quot;margin:0;&quot;&gt;+---+---+---+---+---+---+---+---+&lt;/p&gt;&lt;/div&gt;&lt;/div&gt;&lt;/div&gt;&lt;/div&gt;" style="rounded=1;whiteSpace=wrap;html=1;fillColor=#f8cecc;strokeColor=#b85450;" parent="1" vertex="1">
          <mxGeometry x="-2210" y="3990" width="300" height="300" as="geometry" />
        </mxCell>
        <mxCell id="v4ZDc3-o21Q33p204Lgi-143" value="&lt;div style=&quot;background-color:#ffffff;padding:0px 2px 0px 2px;&quot;&gt;&lt;div style=&quot;&quot;&gt;&lt;div style=&quot;padding: 0px 2px;&quot;&gt;&lt;div style=&quot;font-family: Consolas; font-size: 10pt; white-space: pre;&quot;&gt;&lt;p style=&quot;margin:0;&quot;&gt;+---+---+---+---+---+---+---+---+&lt;/p&gt;&lt;p style=&quot;margin:0;&quot;&gt;| Q | . | . | . | . | . | . | . |&lt;/p&gt;&lt;p style=&quot;margin:0;&quot;&gt;+---+---+---+---+---+---+---+---+&lt;/p&gt;&lt;p style=&quot;margin:0;&quot;&gt;| . | . | . | . | Q | . | . | . |&lt;/p&gt;&lt;p style=&quot;margin:0;&quot;&gt;+---+---+---+---+---+---+---+---+&lt;/p&gt;&lt;p style=&quot;margin:0;&quot;&gt;| . | . | . | . | . | . | . | Q |&lt;/p&gt;&lt;p style=&quot;margin:0;&quot;&gt;+---+---+---+---+---+---+---+---+&lt;/p&gt;&lt;p style=&quot;margin:0;&quot;&gt;| . | . | . | . | . | Q | . | . |&lt;/p&gt;&lt;p style=&quot;margin:0;&quot;&gt;+---+---+---+---+---+---+---+---+&lt;/p&gt;&lt;p style=&quot;margin:0;&quot;&gt;| . | . | Q | . | . | . | . | . |&lt;/p&gt;&lt;p style=&quot;margin:0;&quot;&gt;+---+---+---+---+---+---+---+---+&lt;/p&gt;&lt;p style=&quot;margin:0;&quot;&gt;| . | . | . | . | . | . | Q | . |&lt;/p&gt;&lt;p style=&quot;margin:0;&quot;&gt;+---+---+---+---+---+---+---+---+&lt;/p&gt;&lt;p style=&quot;margin:0;&quot;&gt;| . | . | . | Q | . | . | . | . |&lt;/p&gt;&lt;p style=&quot;margin:0;&quot;&gt;+---+---+---+---+---+---+---+---+&lt;/p&gt;&lt;p style=&quot;margin:0;&quot;&gt;| . | . | . | . | . | . | . | . |&lt;/p&gt;&lt;p style=&quot;margin:0;&quot;&gt;+---+---+---+---+---+---+---+---+&lt;/p&gt;&lt;/div&gt;&lt;/div&gt;&lt;/div&gt;&lt;/div&gt;" style="rounded=1;whiteSpace=wrap;html=1;fillColor=#f8cecc;strokeColor=#b85450;" parent="1" vertex="1">
          <mxGeometry x="-1800" y="3990" width="300" height="300" as="geometry" />
        </mxCell>
        <mxCell id="v4ZDc3-o21Q33p204Lgi-144" value="&lt;div style=&quot;background-color:#ffffff;padding:0px 2px 0px 2px;&quot;&gt;&lt;div style=&quot;&quot;&gt;&lt;div style=&quot;padding: 0px 2px;&quot;&gt;&lt;div style=&quot;font-family: Consolas; font-size: 10pt; white-space: pre;&quot;&gt;&lt;p style=&quot;margin:0;&quot;&gt;+---+---+---+---+---+---+---+---+&lt;/p&gt;&lt;p style=&quot;margin:0;&quot;&gt;| Q | . | . | . | . | . | . | . |&lt;/p&gt;&lt;p style=&quot;margin:0;&quot;&gt;+---+---+---+---+---+---+---+---+&lt;/p&gt;&lt;p style=&quot;margin:0;&quot;&gt;| . | . | . | . | Q | . | . | . |&lt;/p&gt;&lt;p style=&quot;margin:0;&quot;&gt;+---+---+---+---+---+---+---+---+&lt;/p&gt;&lt;p style=&quot;margin:0;&quot;&gt;| . | . | . | . | . | . | . | Q |&lt;/p&gt;&lt;p style=&quot;margin:0;&quot;&gt;+---+---+---+---+---+---+---+---+&lt;/p&gt;&lt;p style=&quot;margin:0;&quot;&gt;| . | . | . | . | . | Q | . | . |&lt;/p&gt;&lt;p style=&quot;margin:0;&quot;&gt;+---+---+---+---+---+---+---+---+&lt;/p&gt;&lt;p style=&quot;margin:0;&quot;&gt;| . | . | Q | . | . | . | . | . |&lt;/p&gt;&lt;p style=&quot;margin:0;&quot;&gt;+---+---+---+---+---+---+---+---+&lt;/p&gt;&lt;p style=&quot;margin:0;&quot;&gt;| . | . | . | . | . | . | Q | . |&lt;/p&gt;&lt;p style=&quot;margin:0;&quot;&gt;+---+---+---+---+---+---+---+---+&lt;/p&gt;&lt;p style=&quot;margin:0;&quot;&gt;| . | . | . | . | Q | . | . | . |&lt;/p&gt;&lt;p style=&quot;margin:0;&quot;&gt;+---+---+---+---+---+---+---+---+&lt;/p&gt;&lt;p style=&quot;margin:0;&quot;&gt;| . | . | . | . | . | . | . | . |&lt;/p&gt;&lt;p style=&quot;margin:0;&quot;&gt;+---+---+---+---+---+---+---+---+&lt;/p&gt;&lt;/div&gt;&lt;/div&gt;&lt;/div&gt;&lt;/div&gt;" style="rounded=1;whiteSpace=wrap;html=1;fillColor=#f8cecc;strokeColor=#b85450;" parent="1" vertex="1">
          <mxGeometry x="-1330" y="3980" width="300" height="300" as="geometry" />
        </mxCell>
        <mxCell id="v4ZDc3-o21Q33p204Lgi-145" value="&lt;div style=&quot;background-color:#ffffff;padding:0px 2px 0px 2px;&quot;&gt;&lt;div style=&quot;&quot;&gt;&lt;div style=&quot;padding: 0px 2px;&quot;&gt;&lt;div style=&quot;font-family: Consolas; font-size: 10pt; white-space: pre;&quot;&gt;&lt;p style=&quot;margin:0;&quot;&gt;+---+---+---+---+---+---+---+---+&lt;/p&gt;&lt;p style=&quot;margin:0;&quot;&gt;| Q | . | . | . | . | . | . | . |&lt;/p&gt;&lt;p style=&quot;margin:0;&quot;&gt;+---+---+---+---+---+---+---+---+&lt;/p&gt;&lt;p style=&quot;margin:0;&quot;&gt;| . | . | . | . | Q | . | . | . |&lt;/p&gt;&lt;p style=&quot;margin:0;&quot;&gt;+---+---+---+---+---+---+---+---+&lt;/p&gt;&lt;p style=&quot;margin:0;&quot;&gt;| . | . | . | . | . | . | . | Q |&lt;/p&gt;&lt;p style=&quot;margin:0;&quot;&gt;+---+---+---+---+---+---+---+---+&lt;/p&gt;&lt;p style=&quot;margin:0;&quot;&gt;| . | . | . | . | . | Q | . | . |&lt;/p&gt;&lt;p style=&quot;margin:0;&quot;&gt;+---+---+---+---+---+---+---+---+&lt;/p&gt;&lt;p style=&quot;margin:0;&quot;&gt;| . | . | Q | . | . | . | . | . |&lt;/p&gt;&lt;p style=&quot;margin:0;&quot;&gt;+---+---+---+---+---+---+---+---+&lt;/p&gt;&lt;p style=&quot;margin:0;&quot;&gt;| . | . | . | . | . | . | Q | . |&lt;/p&gt;&lt;p style=&quot;margin:0;&quot;&gt;+---+---+---+---+---+---+---+---+&lt;/p&gt;&lt;p style=&quot;margin:0;&quot;&gt;| . | . | . | . | . | . | . | Q |&lt;/p&gt;&lt;p style=&quot;margin:0;&quot;&gt;+---+---+---+---+---+---+---+---+&lt;/p&gt;&lt;p style=&quot;margin:0;&quot;&gt;| . | . | . | . | . | . | . | . |&lt;/p&gt;&lt;p style=&quot;margin:0;&quot;&gt;+---+---+---+---+---+---+---+---+&lt;/p&gt;&lt;/div&gt;&lt;/div&gt;&lt;/div&gt;&lt;/div&gt;" style="rounded=1;whiteSpace=wrap;html=1;fillColor=#f8cecc;strokeColor=#b85450;" parent="1" vertex="1">
          <mxGeometry x="530" y="3960" width="300" height="300" as="geometry" />
        </mxCell>
        <mxCell id="v4ZDc3-o21Q33p204Lgi-146" value="&lt;div style=&quot;background-color:#ffffff;padding:0px 2px 0px 2px;&quot;&gt;&lt;div style=&quot;&quot;&gt;&lt;div style=&quot;padding: 0px 2px;&quot;&gt;&lt;div style=&quot;font-family: Consolas; font-size: 10pt; white-space: pre;&quot;&gt;&lt;p style=&quot;margin:0;&quot;&gt;+---+---+---+---+---+---+---+---+&lt;/p&gt;&lt;p style=&quot;margin:0;&quot;&gt;| Q | . | . | . | . | . | . | . |&lt;/p&gt;&lt;p style=&quot;margin:0;&quot;&gt;+---+---+---+---+---+---+---+---+&lt;/p&gt;&lt;p style=&quot;margin:0;&quot;&gt;| . | . | . | . | Q | . | . | . |&lt;/p&gt;&lt;p style=&quot;margin:0;&quot;&gt;+---+---+---+---+---+---+---+---+&lt;/p&gt;&lt;p style=&quot;margin:0;&quot;&gt;| . | . | . | . | . | . | . | Q |&lt;/p&gt;&lt;p style=&quot;margin:0;&quot;&gt;+---+---+---+---+---+---+---+---+&lt;/p&gt;&lt;p style=&quot;margin:0;&quot;&gt;| . | . | . | . | . | Q | . | . |&lt;/p&gt;&lt;p style=&quot;margin:0;&quot;&gt;+---+---+---+---+---+---+---+---+&lt;/p&gt;&lt;p style=&quot;margin:0;&quot;&gt;| . | . | Q | . | . | . | . | . |&lt;/p&gt;&lt;p style=&quot;margin:0;&quot;&gt;+---+---+---+---+---+---+---+---+&lt;/p&gt;&lt;p style=&quot;margin:0;&quot;&gt;| . | . | . | . | . | . | Q | . |&lt;/p&gt;&lt;p style=&quot;margin:0;&quot;&gt;+---+---+---+---+---+---+---+---+&lt;/p&gt;&lt;p style=&quot;margin:0;&quot;&gt;| . | . | . | . | . | . | Q | . |&lt;/p&gt;&lt;p style=&quot;margin:0;&quot;&gt;+---+---+---+---+---+---+---+---+&lt;/p&gt;&lt;p style=&quot;margin:0;&quot;&gt;| . | . | . | . | . | . | . | . |&lt;/p&gt;&lt;p style=&quot;margin:0;&quot;&gt;+---+---+---+---+---+---+---+---+&lt;/p&gt;&lt;/div&gt;&lt;/div&gt;&lt;/div&gt;&lt;/div&gt;" style="rounded=1;whiteSpace=wrap;html=1;fillColor=#f8cecc;strokeColor=#b85450;" parent="1" vertex="1">
          <mxGeometry x="50" y="3960" width="300" height="300" as="geometry" />
        </mxCell>
        <mxCell id="v4ZDc3-o21Q33p204Lgi-147" value="&lt;div style=&quot;background-color:#ffffff;padding:0px 2px 0px 2px;&quot;&gt;&lt;div style=&quot;&quot;&gt;&lt;div style=&quot;padding: 0px 2px;&quot;&gt;&lt;div style=&quot;font-family: Consolas; font-size: 10pt; white-space: pre;&quot;&gt;&lt;p style=&quot;margin:0;&quot;&gt;+---+---+---+---+---+---+---+---+&lt;/p&gt;&lt;p style=&quot;margin:0;&quot;&gt;| Q | . | . | . | . | . | . | . |&lt;/p&gt;&lt;p style=&quot;margin:0;&quot;&gt;+---+---+---+---+---+---+---+---+&lt;/p&gt;&lt;p style=&quot;margin:0;&quot;&gt;| . | . | . | . | Q | . | . | . |&lt;/p&gt;&lt;p style=&quot;margin:0;&quot;&gt;+---+---+---+---+---+---+---+---+&lt;/p&gt;&lt;p style=&quot;margin:0;&quot;&gt;| . | . | . | . | . | . | . | Q |&lt;/p&gt;&lt;p style=&quot;margin:0;&quot;&gt;+---+---+---+---+---+---+---+---+&lt;/p&gt;&lt;p style=&quot;margin:0;&quot;&gt;| . | . | . | . | . | Q | . | . |&lt;/p&gt;&lt;p style=&quot;margin:0;&quot;&gt;+---+---+---+---+---+---+---+---+&lt;/p&gt;&lt;p style=&quot;margin:0;&quot;&gt;| . | . | Q | . | . | . | . | . |&lt;/p&gt;&lt;p style=&quot;margin:0;&quot;&gt;+---+---+---+---+---+---+---+---+&lt;/p&gt;&lt;p style=&quot;margin:0;&quot;&gt;| . | . | . | . | . | . | Q | . |&lt;/p&gt;&lt;p style=&quot;margin:0;&quot;&gt;+---+---+---+---+---+---+---+---+&lt;/p&gt;&lt;p style=&quot;margin:0;&quot;&gt;| . | . | . | . | . | Q | . | . |&lt;/p&gt;&lt;p style=&quot;margin:0;&quot;&gt;+---+---+---+---+---+---+---+---+&lt;/p&gt;&lt;p style=&quot;margin:0;&quot;&gt;| . | . | . | . | . | . | . | . |&lt;/p&gt;&lt;p style=&quot;margin:0;&quot;&gt;+---+---+---+---+---+---+---+---+&lt;/p&gt;&lt;/div&gt;&lt;/div&gt;&lt;/div&gt;&lt;/div&gt;" style="rounded=1;whiteSpace=wrap;html=1;fillColor=#f8cecc;strokeColor=#b85450;" parent="1" vertex="1">
          <mxGeometry x="-410" y="3960" width="300" height="300" as="geometry" />
        </mxCell>
        <mxCell id="v4ZDc3-o21Q33p204Lgi-156" value="&lt;div style=&quot;background-color:#ffffff;padding:0px 2px 0px 2px;&quot;&gt;&lt;div style=&quot;&quot;&gt;&lt;div style=&quot;padding: 0px 2px;&quot;&gt;&lt;div style=&quot;font-family: Consolas; font-size: 10pt; white-space: pre;&quot;&gt;&lt;p style=&quot;margin:0;&quot;&gt;+---+---+---+---+---+---+---+---+&lt;/p&gt;&lt;p style=&quot;margin:0;&quot;&gt;| Q | . | . | . | . | . | . | . |&lt;/p&gt;&lt;p style=&quot;margin:0;&quot;&gt;+---+---+---+---+---+---+---+---+&lt;/p&gt;&lt;p style=&quot;margin:0;&quot;&gt;| . | . | . | . | Q | . | . | . |&lt;/p&gt;&lt;p style=&quot;margin:0;&quot;&gt;+---+---+---+---+---+---+---+---+&lt;/p&gt;&lt;p style=&quot;margin:0;&quot;&gt;| . | . | . | . | . | . | . | Q |&lt;/p&gt;&lt;p style=&quot;margin:0;&quot;&gt;+---+---+---+---+---+---+---+---+&lt;/p&gt;&lt;p style=&quot;margin:0;&quot;&gt;| . | . | . | . | . | Q | . | . |&lt;/p&gt;&lt;p style=&quot;margin:0;&quot;&gt;+---+---+---+---+---+---+---+---+&lt;/p&gt;&lt;p style=&quot;margin:0;&quot;&gt;| . | . | Q | . | . | . | . | . |&lt;/p&gt;&lt;p style=&quot;margin:0;&quot;&gt;+---+---+---+---+---+---+---+---+&lt;/p&gt;&lt;p style=&quot;margin:0;&quot;&gt;| . | . | . | . | . | . | Q | . |&lt;/p&gt;&lt;p style=&quot;margin:0;&quot;&gt;+---+---+---+---+---+---+---+---+&lt;/p&gt;&lt;p style=&quot;margin:0;&quot;&gt;| . | Q | . | . | . | . | . | . |&lt;/p&gt;&lt;p style=&quot;margin:0;&quot;&gt;+---+---+---+---+---+---+---+---+&lt;/p&gt;&lt;p style=&quot;margin:0;&quot;&gt;| Q | . | . | . | . | . | . | . |&lt;/p&gt;&lt;p style=&quot;margin:0;&quot;&gt;+---+---+---+---+---+---+---+---+&lt;/p&gt;&lt;/div&gt;&lt;/div&gt;&lt;/div&gt;&lt;/div&gt;" style="rounded=1;whiteSpace=wrap;html=1;fillColor=#f8cecc;strokeColor=#b85450;" parent="1" vertex="1">
          <mxGeometry x="-1820" y="4620" width="300" height="300" as="geometry" />
        </mxCell>
        <mxCell id="v4ZDc3-o21Q33p204Lgi-157" value="&lt;div style=&quot;background-color:#ffffff;padding:0px 2px 0px 2px;&quot;&gt;&lt;div style=&quot;&quot;&gt;&lt;div style=&quot;padding: 0px 2px;&quot;&gt;&lt;div style=&quot;font-family: Consolas; font-size: 10pt; white-space: pre;&quot;&gt;&lt;p style=&quot;margin:0;&quot;&gt;+---+---+---+---+---+---+---+---+&lt;/p&gt;&lt;p style=&quot;margin:0;&quot;&gt;| Q | . | . | . | . | . | . | . |&lt;/p&gt;&lt;p style=&quot;margin:0;&quot;&gt;+---+---+---+---+---+---+---+---+&lt;/p&gt;&lt;p style=&quot;margin:0;&quot;&gt;| . | . | . | . | Q | . | . | . |&lt;/p&gt;&lt;p style=&quot;margin:0;&quot;&gt;+---+---+---+---+---+---+---+---+&lt;/p&gt;&lt;p style=&quot;margin:0;&quot;&gt;| . | . | . | . | . | . | . | Q |&lt;/p&gt;&lt;p style=&quot;margin:0;&quot;&gt;+---+---+---+---+---+---+---+---+&lt;/p&gt;&lt;p style=&quot;margin:0;&quot;&gt;| . | . | . | . | . | Q | . | . |&lt;/p&gt;&lt;p style=&quot;margin:0;&quot;&gt;+---+---+---+---+---+---+---+---+&lt;/p&gt;&lt;p style=&quot;margin:0;&quot;&gt;| . | . | Q | . | . | . | . | . |&lt;/p&gt;&lt;p style=&quot;margin:0;&quot;&gt;+---+---+---+---+---+---+---+---+&lt;/p&gt;&lt;p style=&quot;margin:0;&quot;&gt;| . | . | . | . | . | . | Q | . |&lt;/p&gt;&lt;p style=&quot;margin:0;&quot;&gt;+---+---+---+---+---+---+---+---+&lt;/p&gt;&lt;p style=&quot;margin:0;&quot;&gt;| . | Q | . | . | . | . | . | . |&lt;/p&gt;&lt;p style=&quot;margin:0;&quot;&gt;+---+---+---+---+---+---+---+---+&lt;/p&gt;&lt;p style=&quot;margin:0;&quot;&gt;| . | Q | . | . | . | . | . | . |&lt;/p&gt;&lt;p style=&quot;margin:0;&quot;&gt;+---+---+---+---+---+---+---+---+&lt;/p&gt;&lt;/div&gt;&lt;/div&gt;&lt;/div&gt;&lt;/div&gt;" style="rounded=1;whiteSpace=wrap;html=1;fillColor=#f8cecc;strokeColor=#b85450;" parent="1" vertex="1">
          <mxGeometry x="-1360" y="4630" width="300" height="300" as="geometry" />
        </mxCell>
        <mxCell id="v4ZDc3-o21Q33p204Lgi-158" value="&lt;div style=&quot;background-color:#ffffff;padding:0px 2px 0px 2px;&quot;&gt;&lt;div style=&quot;&quot;&gt;&lt;div style=&quot;padding: 0px 2px;&quot;&gt;&lt;div style=&quot;font-family: Consolas; font-size: 10pt; white-space: pre;&quot;&gt;&lt;p style=&quot;margin:0;&quot;&gt;+---+---+---+---+---+---+---+---+&lt;/p&gt;&lt;p style=&quot;margin:0;&quot;&gt;| Q | . | . | . | . | . | . | . |&lt;/p&gt;&lt;p style=&quot;margin:0;&quot;&gt;+---+---+---+---+---+---+---+---+&lt;/p&gt;&lt;p style=&quot;margin:0;&quot;&gt;| . | . | . | . | Q | . | . | . |&lt;/p&gt;&lt;p style=&quot;margin:0;&quot;&gt;+---+---+---+---+---+---+---+---+&lt;/p&gt;&lt;p style=&quot;margin:0;&quot;&gt;| . | . | . | . | . | . | . | Q |&lt;/p&gt;&lt;p style=&quot;margin:0;&quot;&gt;+---+---+---+---+---+---+---+---+&lt;/p&gt;&lt;p style=&quot;margin:0;&quot;&gt;| . | . | . | . | . | Q | . | . |&lt;/p&gt;&lt;p style=&quot;margin:0;&quot;&gt;+---+---+---+---+---+---+---+---+&lt;/p&gt;&lt;p style=&quot;margin:0;&quot;&gt;| . | . | Q | . | . | . | . | . |&lt;/p&gt;&lt;p style=&quot;margin:0;&quot;&gt;+---+---+---+---+---+---+---+---+&lt;/p&gt;&lt;p style=&quot;margin:0;&quot;&gt;| . | . | . | . | . | . | Q | . |&lt;/p&gt;&lt;p style=&quot;margin:0;&quot;&gt;+---+---+---+---+---+---+---+---+&lt;/p&gt;&lt;p style=&quot;margin:0;&quot;&gt;| . | Q | . | . | . | . | . | . |&lt;/p&gt;&lt;p style=&quot;margin:0;&quot;&gt;+---+---+---+---+---+---+---+---+&lt;/p&gt;&lt;p style=&quot;margin:0;&quot;&gt;| . | . | Q | . | . | . | . | . |&lt;/p&gt;&lt;p style=&quot;margin:0;&quot;&gt;+---+---+---+---+---+---+---+---+&lt;/p&gt;&lt;/div&gt;&lt;/div&gt;&lt;/div&gt;&lt;/div&gt;" style="rounded=1;whiteSpace=wrap;html=1;fillColor=#f8cecc;strokeColor=#b85450;" parent="1" vertex="1">
          <mxGeometry x="-930" y="4640" width="300" height="300" as="geometry" />
        </mxCell>
      </root>
    </mxGraphModel>
  </diagram>
</mxfile>
